<svg xmlns="http://www.w3.org/2000/svg" viewBox="0 0 64 64" fill="none">
  <title>Kotal Kahn — War God obsidian-edged macuahuitl</title>
  <g data-variation-frame="true" stroke="#63B8A3" stroke-linecap="square" stroke-linejoin="bevel">
    <path d="M10 7h15l7 6 7-6h15v15l-6 10 6 10v15H39l-7-6-7 6H10V42l6-10-6-10z" fill="#15201E" stroke-width="2.6"/>
    <path d="M10 22h8m28 0h8M10 42h8m28 0h8M25 7v7m14-7v7M25 50v7m14-7v7" stroke="#D49A3A" stroke-width="1.8"/>
  </g>
  <g data-variation-symbol="true" stroke-linecap="round" stroke-linejoin="round">
    <path d="m18 50 7-9 15-27 7 4-15 27-2 11z" fill="#5D3C22" stroke="#D49A3A" stroke-width="2.2"/>
    <path d="m39 16 5-5 4 2-1 7m-5 2 8 1-3 6m-9-1 7 5-5 5m-8-4 5 7-7 3" fill="#172A2A" stroke="#63B8A3" stroke-width="1.8"/>
    <path d="m17 47 14 8" stroke="#F0C46C" stroke-width="2.5"/>
  </g>
</svg>
