<svg xmlns="http://www.w3.org/2000/svg" viewBox="0 0 64 64" fill="none">
  <title>The Kove — throwable dockside cargo box</title>
  <g data-game-icon-frame="true">
    <path d="M12 9h34l10 12 2 23-13 13H19L6 44l2-23 4-12Z" fill="#111D20" stroke="#4E8390" stroke-width="2"/>
    <path d="M12 14h11m29 9-8 3M11 48l10-5m31 5-9-5" stroke="#BBD4D9" stroke-width="1.5" stroke-linecap="round"/>
  </g>
  <g data-game-icon-symbol="true">
    <path d="m17 25 15-9 15 9v20l-15 9-15-9V25Z" fill="#8B6840" stroke="#F2DBB8" stroke-width="2" stroke-linejoin="round"/>
    <path d="m17 25 15 9 15-9M32 34v20M20 21l15 9m9-7-15 9" stroke="#4B3724" stroke-width="1.5"/>
    <path d="M9 30C11 18 20 10 32 9m-6-4 7 4-6 6" stroke="#60B1C4" stroke-width="2.5" stroke-linecap="round" stroke-linejoin="round"/>
  </g>
</svg>
