<svg xmlns="http://www.w3.org/2000/svg" viewBox="0 0 64 64" fill="none">
  <title>The Kove — swing from the hanging cargo hook</title>
  <g data-game-icon-frame="true">
    <path d="M18 6h28l12 16-4 23-12 13H22L10 45 6 22 18 6Z" fill="#101B1E" stroke="#4C8795" stroke-width="2"/>
    <path d="M13 22c5-7 11-11 19-11s14 4 19 11M14 47l9-4m27 4-9-4" stroke="#BEDCE2" stroke-width="1.5" stroke-linecap="round"/>
  </g>
  <g data-game-icon-symbol="true">
    <path d="M34 7v27c0 10 14 10 14 0 0-5-3-8-8-8" stroke="#B59B77" stroke-width="4" stroke-linecap="round"/>
    <circle cx="28" cy="39" r="4" fill="#C9D3D3" stroke="#F3F7F7" stroke-width="1.5"/>
    <path d="m29 44 7 6 10-2m-10 2 3 9m-6-12-8 8m1-18-8 3" stroke="#DCE4E3" stroke-width="2.5" stroke-linecap="round"/>
    <path d="M14 24c-6 11-3 23 8 30m-9-4 9 4-2-8" stroke="#59B7C8" stroke-width="2.5" stroke-linecap="round" stroke-linejoin="round"/>
  </g>
</svg>
