<svg xmlns="http://www.w3.org/2000/svg" viewBox="0 0 64 64" fill="none">
  <title>The Kove — throwable dockside clay pot</title>
  <g data-game-icon-frame="true">
    <path d="M32 5 48 12l10 20-10 20-16 7-16-7L6 32l10-20 16-7Z" fill="#161A1B" stroke="#617B80" stroke-width="2"/>
    <path d="M15 16 23 21m26-5-8 5M11 46l10-4m32 4-10-4" stroke="#CDD8D8" stroke-width="1.5"/>
  </g>
  <g data-game-icon-symbol="true">
    <path d="M24 13h16v8H24v-8Zm-4 12 4-4h16l4 4c5 12 3 23-4 29H24c-7-6-9-17-4-29Z" fill="#A45E42" stroke="#F4D4C1" stroke-width="2"/>
    <path d="M20 31h24M22 42h20M27 21l-3 32m13-32 3 32" stroke="#623322" stroke-width="1.5"/>
    <path d="M13 24c4-8 10-13 18-15m-5-4 6 4-5 6" stroke="#57AFC2" stroke-width="2" stroke-linecap="round" stroke-linejoin="round"/>
  </g>
</svg>
