<svg xmlns="http://www.w3.org/2000/svg" viewBox="0 0 64 64" fill="none">
  <title>Mileena — Ethereal fade teleport through a violet portal</title>
  <g data-variation-frame="true" stroke-linecap="round" stroke-linejoin="round">
    <path d="M27 6C14 8 6 18 6 32s8 24 21 26" fill="#181326" stroke="#8B69E8" stroke-width="2.5"/>
    <path d="M37 6c13 2 21 12 21 26s-8 24-21 26" fill="#13242B" stroke="#4EC6D3" stroke-width="2.5"/>
    <path d="M20 11c5 6 6 12 4 18m20-18c-5 6-6 12-4 18M20 53c5-6 6-12 4-18m20 18c-5-6-6-12-4-18" stroke="#C7B8FF" stroke-width="1.6" stroke-dasharray="2 4"/>
  </g>
  <g data-variation-symbol="true" stroke-linecap="round" stroke-linejoin="round">
    <path d="M18 49c2-9 5-15 10-17-4-3-5-8-3-12l7-7 7 7c2 4 1 9-3 12 5 2 8 8 10 17z" fill="#332456" stroke="#8B69E8" stroke-width="2.2"/>
    <path d="M32 13v39" stroke="#E9E1FF" stroke-width="1.8" stroke-dasharray="4 3"/>
    <path d="m39 20 8-4-2 8 7 1-7 5 5 5-8 1 2 8-7-4" fill="#1C535D" stroke="#4EC6D3" stroke-width="1.8"/>
    <path d="M15 24c-4 5-4 11 0 16m34-19 5-4m-5 26 5 4" stroke="#C7B8FF" stroke-width="1.8"/>
  </g>
</svg>
