<svg xmlns="http://www.w3.org/2000/svg" viewBox="0 0 64 64" fill="none">
  <title>Mileena — Piercing twin sai techniques</title>
  <g data-variation-frame="true" stroke="#E86AA8" stroke-linecap="round" stroke-linejoin="round">
    <path d="M32 5 43 17l16 2-8 14 5 16-17 2-7 8-7-8-17-2 5-16-8-14 16-2z" fill="#241520" stroke-width="2.5"/>
    <path d="M19 17 9 8m36 9 10-9M13 49 7 56m44-7 6 7" stroke="#9A74E8" stroke-width="1.8"/>
    <path d="M25 8h14M25 56h14" stroke="#FFD2EA" stroke-width="1.6"/>
  </g>
  <g data-variation-symbol="true" stroke-linecap="round" stroke-linejoin="round">
    <path d="m18 50 10-12 16-25 4 3-16 25-7 14z" fill="#382539" stroke="#FFD2EA" stroke-width="2.1"/>
    <path d="m46 50-10-12-16-25-4 3 16 25 7 14z" fill="#382539" stroke="#FFD2EA" stroke-width="2.1"/>
    <path d="m23 40-9-5m12 1 1-10m14 14 9-5m-12 1-1-10" stroke="#E86AA8" stroke-width="2.4"/>
    <path d="m17 17 5-5m25 5-5-5" stroke="#9A74E8" stroke-width="2"/>
  </g>
</svg>
