<svg xmlns="http://www.w3.org/2000/svg" viewBox="0 0 64 64" fill="none">
  <title>Raiden — Displacer: lightning teleport</title>
  <g data-variation-frame="true">
    <path d="M13 12h14l5-7 5 7h14v14l7 6-7 6v14H37l-5 7-5-7H13V38l-7-6 7-6V12Z" fill="#101728" stroke="#8B8FEF" stroke-width="2" stroke-linejoin="round"/>
    <path d="M17 16h9M47 16h-9M17 48h9M47 48h-9" stroke="#DAD8FF" stroke-width="1.5" stroke-linecap="round"/>
  </g>
  <g data-variation-symbol="true">
    <path d="M24 20c-7 3-11 9-9 16 2 8 9 11 16 10" stroke="#AAA7FF" stroke-width="3" stroke-linecap="round"/>
    <path d="M40 44c7-3 11-9 9-16-2-8-9-11-16-10" stroke="#5EE8FF" stroke-width="3" stroke-linecap="round"/>
    <path d="m29 16 5 2-4 4m5 26-5-2 4-4M34 23l-7 11h7l-4 8 9-12h-7l2-7Z" fill="#EAF8FF" stroke="#EAF8FF" stroke-width="1.5" stroke-linejoin="round"/>
  </g>
</svg>
