<svg xmlns="http://www.w3.org/2000/svg" viewBox="0 0 64 64" fill="none">
  <title>Quan Chi's Fortress — flaming torch stick strike</title>
  <g data-game-icon-frame="true" stroke="#E16E43" stroke-linecap="round" stroke-linejoin="round">
    <path d="M9 16 18 7h28l9 9 4 16-4 16-9 9H18l-9-9-4-16z" fill="#211713" stroke-width="2.5"/>
    <path d="M13 12 8 7m43 5 5-5M13 52l-5 5m43-5 5 5" stroke="#9464AF" stroke-width="1.8"/>
  </g>
  <g data-game-icon-symbol="true" stroke-linecap="round" stroke-linejoin="round">
    <path d="m16 55 27-36" stroke="#705038" stroke-width="6"/>
    <path d="M40 24c-7-8 0-13 4-20 2 7 8 9 7 16-1 6-6 9-11 4z" fill="#D35138" stroke="#F3B14B" stroke-width="2.5"/>
    <path d="m35 29 9 7m-14 0 9 7" stroke="#A18D7C" stroke-width="2.5"/>
    <path d="m49 43 2 5 6 1-5 4 1 6-5-4-6 2 2-6-4-5 6 1z" fill="#9464AF"/>
  </g>
</svg>
