<svg xmlns="http://www.w3.org/2000/svg" viewBox="0 0 64 64" fill="none">
  <title>Ferra/Torr — Ruthless: Ferra's pain-powered dagger strikes</title>
  <g data-variation-frame="true">
    <path d="m8 11 13-7 11 5 11-5 13 7-2 14 6 11-9 11-2 12-17-4-17 4-2-12-9-11 6-11-2-14Z" fill="#210D10" stroke="#D45257" stroke-width="2"/>
    <path d="m12 18 8-9m32 9-8-9M10 42l8 10m36-10-8 10" stroke="#E4A64C" stroke-width="1.6" stroke-linecap="round"/>
  </g>
  <g data-variation-symbol="true">
    <path d="M22 20h20l5 10-4 20H21l-4-20 5-10Z" fill="#D45257" stroke="#FFD0C5" stroke-width="2" stroke-linejoin="round"/>
    <path d="m16 16 8 12 4-3-6-14-6 5Zm32 0-8 12-4-3 6-14 6 5Z" fill="#E4A64C" stroke="#FFE2A6" stroke-width="2" stroke-linejoin="round"/>
    <path d="M26 34h12m-14 7h16" stroke="#210D10" stroke-width="2" stroke-linecap="round"/>
    <path d="m27 55 5-8 5 8M11 31l6 3-6 3m42-6-6 3 6 3" stroke="#E4A64C" stroke-width="2" stroke-linecap="round" stroke-linejoin="round"/>
  </g>
</svg>
