<svg xmlns="http://www.w3.org/2000/svg" viewBox="0 0 64 64" fill="none">
  <title>Ferra/Torr — Vicious: Ferra thrown as a bladed projectile</title>
  <g data-variation-frame="true">
    <path d="M6 22 18 6l14 4 14-4 12 16-6 13 6 12-14 11-12-5-12 5L6 47l6-12-6-13Z" fill="#101923" stroke="#6CA6D8" stroke-width="2"/>
    <path d="M10 23h10m34 0H44M10 46h10m34 0H44" stroke="#DFA95F" stroke-width="1.7" stroke-linecap="round"/>
  </g>
  <g data-variation-symbol="true">
    <circle cx="35" cy="20" r="5" fill="#DFA95F" stroke="#FFE2AF" stroke-width="2"/>
    <path d="m32 25-8 11 8 7 8-5 4 10 5-3-5-14-6-6h-6Z" fill="#6CA6D8" stroke="#D9EEFF" stroke-width="2" stroke-linejoin="round"/>
    <path d="m27 32-10-6-3 5 10 6m17-8 8-7 3 5-8 7" stroke="#DFA95F" stroke-width="2.5" stroke-linecap="round" stroke-linejoin="round"/>
    <path d="M8 17h12M6 31h9M10 45h9" stroke="#6CA6D8" stroke-width="2" stroke-linecap="round"/>
  </g>
</svg>
