<svg xmlns="http://www.w3.org/2000/svg" viewBox="0 0 64 64" fill="none">
  <title>Kung Lao — Buzz Saw vertical hat blade</title>
  <g data-variation-frame="true" stroke="#E9594A" stroke-linecap="round" stroke-linejoin="round">
    <path d="m32 4 5 7 8-3 1 9 9 1-3 8 7 6-7 6 3 8-9 1-1 9-8-3-5 7-5-7-8 3-1-9-9-1 3-8-7-6 7-6-3-8 9-1 1-9 8 3z" fill="#211719" stroke-width="2.3"/>
    <circle cx="32" cy="32" r="23" stroke="#F3B54A" stroke-width="1.6" stroke-dasharray="3 4"/>
  </g>
  <g data-variation-symbol="true" stroke-linecap="round" stroke-linejoin="round">
    <path d="m32 11 8 11-3 29H27l-3-29z" fill="#3A2B2B" stroke="#F3D1B0" stroke-width="2.2"/>
    <path d="m24 22-5 3 5 4-5 4 6 4-5 5 7 2m13-22 5 3-5 4 5 4-6 4 5 5-7 2" stroke="#E9594A" stroke-width="2"/>
    <path d="M28 18h8M27 47h10" stroke="#F3B54A" stroke-width="2"/>
    <path d="m15 50 5-2m-7-5 6 1m30 6-5-2" stroke="#F3D1B0" stroke-width="1.8"/>
  </g>
</svg>
