<svg xmlns="http://www.w3.org/2000/svg" viewBox="0 0 64 64" fill="none">
  <title>Kung Lao — Tempest orbiting razor hat and wind shield</title>
  <g data-variation-frame="true" stroke-linecap="round" stroke-linejoin="round">
    <path d="M14 14c11-10 29-8 38 4 8 12 6 28-5 37M50 50c-11 10-29 8-38-4-8-12-6-28 5-37" stroke="#57C9D6" stroke-width="2.6"/>
    <path d="m47 55 1-7 7 1M17 9l-1 7-7-1" stroke="#F0E7C7" stroke-width="2"/>
    <path d="M10 25c7-6 14-8 22-7m22 21c-7 6-14 8-22 7" stroke="#2F7C8C" stroke-width="1.8" stroke-dasharray="4 3"/>
  </g>
  <g data-variation-symbol="true" stroke-linecap="round" stroke-linejoin="round">
    <path d="m13 32 19-7 19 7-19 7z" fill="#26363A" stroke="#F0E7C7" stroke-width="2.3"/>
    <path d="M22 31c3-10 17-10 20 0" fill="#245866" stroke="#57C9D6" stroke-width="2"/>
    <path d="M17 43c8 5 22 5 30 0M18 21c8-5 20-5 28 0" stroke="#57C9D6" stroke-width="2"/>
    <path d="m15 46 3-3-1-4m32-14-3-4 3-3" stroke="#F0E7C7" stroke-width="1.8"/>
  </g>
</svg>
