<svg xmlns="http://www.w3.org/2000/svg" viewBox="0 0 64 64" fill="none">
  <title>Ermac — Mystic: telekinetic hands lifting stone</title>
  <g data-variation-frame="true">
    <path d="M32 3 58 32 32 61 6 32 32 3Z" fill="#181015" stroke="#D64E59" stroke-width="2"/>
    <path d="M32 8 53 32 32 56 11 32 32 8Z" stroke="#6CD5C4" stroke-width="1.5" stroke-dasharray="2 5"/>
  </g>
  <g data-variation-symbol="true">
    <path d="m24 21 8-6 8 6-3 10H27l-3-10Z" fill="#6CD5C4" stroke="#D9FFF7" stroke-width="2" stroke-linejoin="round"/>
    <path d="M12 43c6-8 10-10 17-7l-4 5-7 6m34-4c-6-8-10-10-17-7l4 5 7 6" fill="#D64E59" stroke="#FFC9CC" stroke-width="2" stroke-linecap="round" stroke-linejoin="round"/>
    <path d="M23 30c-3-3-3-7 0-10m18 10c3-3 3-7 0-10M27 48h10" stroke="#6CD5C4" stroke-width="2" stroke-linecap="round"/>
  </g>
</svg>
