<svg xmlns="http://www.w3.org/2000/svg" viewBox="0 0 64 64" fill="none">
  <title>Crossroads — jump from the rock ledge</title>
  <g data-game-icon-frame="true" stroke="#5DC8C1" stroke-linecap="round" stroke-linejoin="round">
    <path d="M9 21V9h15M40 9h15v12M9 43v12h15M40 55h15V43" stroke-width="2.5"/>
    <path d="M13 32c0-12 7-20 19-24 12 4 19 12 19 24s-7 20-19 24C20 52 13 44 13 32z" fill="#14201F" stroke="#426E6B" stroke-width="1.5" stroke-dasharray="5 4"/>
  </g>
  <g data-game-icon-symbol="true" stroke-linecap="round" stroke-linejoin="round">
    <path d="m8 50 8-17 14-5 10 11 9 2 7 9z" fill="#575B59" stroke="#BEC8C3" stroke-width="2.5"/>
    <circle cx="20" cy="18" r="4" fill="#DDE8E3"/>
    <path d="m22 22 6 6 7-3m-7 3-5 8" stroke="#DDE8E3" stroke-width="2.8"/>
    <path d="M17 43c13-2 22-10 28-22m-8 1 8-1-1 8" stroke="#5DC8C1" stroke-width="2.5"/>
  </g>
</svg>
