<svg xmlns="http://www.w3.org/2000/svg" viewBox="0 0 64 64" fill="none">
  <title>Bo' Rai Cho — Dragon Breath: flask-fed fire stream</title>
  <g data-variation-frame="true">
    <path d="M32 4c6 7 16 7 23 11-2 9 4 16 5 23-9 5-13 14-17 21-8-4-16-1-24 0-3-9-10-14-15-21 6-7 5-17 5-23 9-1 16-7 23-11Z" fill="#26120A" stroke="#F07B2C" stroke-width="2"/>
    <path d="M16 16c5-3 10-6 16-8m16 8c-5-3-10-6-16-8M12 45l7 9m33-9-7 9" stroke="#FFD45E" stroke-width="1.5" stroke-linecap="round"/>
  </g>
  <g data-variation-symbol="true">
    <path d="m17 38 9-14 8 5-9 14c-2 3-5 4-8 2-3-2-2-5 0-7Z" fill="#FFD45E" stroke="#FFF1B2" stroke-width="2"/>
    <path d="m25 25 4-6 6 4-4 6" stroke="#FFF1B2" stroke-width="2" stroke-linejoin="round"/>
    <path d="M34 27c7-8 10-4 9 1 7-5 11 0 6 4 7 0 7 7 1 8-8 1-13-4-18-8l2-5Z" fill="#F07B2C" stroke="#FFD45E" stroke-width="2" stroke-linejoin="round"/>
    <path d="M38 31c4-3 7-1 6 2 3-1 5 1 3 3" stroke="#FFF1B2" stroke-width="1.7" stroke-linecap="round"/>
  </g>
</svg>
