<svg xmlns="http://www.w3.org/2000/svg" viewBox="0 0 64 64" fill="none">
  <title>Alien — Acidic: corrosive xenomorph spray</title>
  <g data-variation-frame="true">
    <path d="M32 3 54 14l6 25-16 20H20L4 39l6-25L32 3Z" fill="#071A18" stroke="#75C66D" stroke-width="2"/>
    <path d="m12 19 6-7h28l6 7M10 43l9 11h26l9-11" stroke="#D3EF87" stroke-width="1.5" stroke-linecap="round"/>
  </g>
  <g data-variation-symbol="true">
    <path d="M17 31c3-10 11-16 24-15 5 1 9 4 10 8l-8-2 6 5-10 1-3 8-11 2-8-7Z" fill="#75C66D" stroke="#E8F7BA" stroke-width="2" stroke-linejoin="round"/>
    <path d="m21 32 14-2-7 5m12 1c0 0-5 6-5 10a5 5 0 0 0 10 0c0-4-5-10-5-10Z" stroke="#E8F7BA" stroke-width="2" stroke-linecap="round" stroke-linejoin="round"/>
    <circle cx="31" cy="24" r="1.8" fill="#071A18"/>
  </g>
</svg>
