<svg xmlns="http://www.w3.org/2000/svg" viewBox="0 0 64 64" fill="none">
  <title>Erron Black — Gunslinger: paired revolvers</title>
  <g data-variation-frame="true">
    <path d="m32 4 7 7 10-1 2 10 8 5-5 9 2 10-10 3-4 10-10-4-10 4-4-10-10-3 2-10-5-9 8-5 2-10 10 1 7-7Z" fill="#1B130C" stroke="#D79A48" stroke-width="2"/>
    <circle cx="32" cy="31" r="23" stroke="#7DA7B0" stroke-width="1.5" stroke-dasharray="1 5"/>
  </g>
  <g data-variation-symbol="true">
    <path d="m13 23 17 7-3 8-7-2-3 12-5-2 3-13-5-3 3-7Zm38 0-17 7 3 8 7-2 3 12 5-2-3-13 5-3-3-7Z" fill="#D79A48" stroke="#FFE0A1" stroke-width="2" stroke-linejoin="round"/>
    <circle cx="23" cy="32" r="3" fill="#7DA7B0"/><circle cx="41" cy="32" r="3" fill="#7DA7B0"/>
    <path d="M27 44h10" stroke="#FFE0A1" stroke-width="2" stroke-linecap="round"/>
  </g>
</svg>
