<svg xmlns="http://www.w3.org/2000/svg" viewBox="0 0 64 64" fill="none">
  <title>Erron Black — Outlaw: weathered Tarkatan sand sword</title>
  <g data-variation-frame="true">
    <path d="M12 7h40l7 15-4 27-12 9H21L9 49 5 22l7-15Z" fill="#21140D" stroke="#B96B45" stroke-width="2"/>
    <path d="M9 23c8-3 15 2 23 0 8-2 15-4 23 0M12 48c7-3 13 2 20 0 7-2 13-3 20 0" stroke="#E5C277" stroke-width="1.5" stroke-linecap="round"/>
  </g>
  <g data-variation-symbol="true">
    <path d="m36 11 7 4-14 29-7-4 14-29Z" fill="#B96B45" stroke="#FFDCA0" stroke-width="2" stroke-linejoin="round"/>
    <path d="m23 37 14 7m-12-2-4 9m7-8-4 10" stroke="#E5C277" stroke-width="2.3" stroke-linecap="round"/>
    <path d="M15 51c6-3 11-1 17 0 6 2 11-3 17 0" stroke="#D38E42" stroke-width="2" stroke-linecap="round"/>
    <path d="m36 18 5-2-2 5m-6 3 5-2-2 5" stroke="#21140D" stroke-width="1.5" stroke-linecap="round" stroke-linejoin="round"/>
  </g>
</svg>
