<svg xmlns="http://www.w3.org/2000/svg" viewBox="0 0 64 64" fill="none">
  <title>Hidden variation state — concealed fourth medallion</title>
  <g data-game-icon-frame="true">
    <path d="M12 11h40l6 12-5 9 5 9-6 12H12L6 41l5-9-5-9 6-12Z" fill="#181421" stroke="#816DA7" stroke-width="2"/>
    <path d="M15 15h10m24 0H39M15 49h10m24 0H39" stroke="#CFC1E8" stroke-width="1.5" stroke-linecap="round"/>
  </g>
  <g data-game-icon-symbol="true">
    <circle cx="20" cy="39" r="6" fill="#53456D" stroke="#D8CCEA" stroke-width="1.5"/><circle cx="32" cy="39" r="6" fill="#53456D" stroke="#D8CCEA" stroke-width="1.5"/><circle cx="44" cy="39" r="6" fill="#53456D" stroke="#D8CCEA" stroke-width="1.5"/>
    <path d="M15 26c10-10 24-10 34 0-10 10-24 10-34 0Z" fill="#2B233A" stroke="#EEE7FA" stroke-width="2"/>
    <circle cx="32" cy="26" r="5" fill="#9B7DCF" stroke="#F8F2FF" stroke-width="1.5"/>
    <path d="m21 15 23 23" stroke="#E281B0" stroke-width="2" stroke-linecap="round"/>
  </g>
</svg>
