<svg xmlns="http://www.w3.org/2000/svg" viewBox="0 0 64 64" fill="none">
  <title>Sub-Zero — Grandmaster: ice clone</title>
  <g data-variation-frame="true">
    <path d="M12 12h16l4-7 4 7h16v16l7 4-7 4v16H36l-4 7-4-7H12V36l-7-4 7-4V12Z" fill="#0B1828" stroke="#438BCC" stroke-width="2"/>
    <path d="m14 14 8 8m28-8-8 8M14 50l8-8m28 8-8-8" stroke="#B7E6FF" stroke-width="1.5"/>
  </g>
  <g data-variation-symbol="true">
    <path d="M32 13c7 0 11 5 11 12 0 5-2 8-5 11 7 2 11 7 12 15H14c1-8 5-13 12-15-3-3-5-6-5-11 0-7 4-12 11-12Z" fill="#6FC2E9" fill-opacity=".78" stroke="#E2F8FF" stroke-width="2" stroke-linejoin="round"/>
    <path d="m23 25 9-5 9 5-4 8H27l-4-8Zm9 11v15" stroke="#286A98" stroke-width="1.5" stroke-linejoin="round"/>
    <path d="m16 45 6-2m26 2-6-2" stroke="#E2F8FF" stroke-width="1.5"/>
  </g>
</svg>
