<svg xmlns="http://www.w3.org/2000/svg" viewBox="0 0 64 64" fill="none">
  <title>Sub-Zero — Unbreakable: frozen barrier</title>
  <g data-variation-frame="true">
    <path d="M7 16 18 7h28l11 9v31L46 57H18L7 47V16Z" fill="#0E222F" stroke="#6AD0E8" stroke-width="2"/>
    <path d="M12 19v25l9 8m31-33v25l-9 8M20 11h24" stroke="#D1F9FF" stroke-width="1.5" stroke-linecap="round"/>
  </g>
  <g data-variation-symbol="true">
    <path d="m32 13 16 7v13c0 10-6 17-16 21-10-4-16-11-16-21V20l16-7Z" fill="#4EAEC8" fill-opacity=".72" stroke="#E6FCFF" stroke-width="2" stroke-linejoin="round"/>
    <path d="m32 18-5 13 5 18 5-18-5-13Zm-15 13 10 0m10 0h10M21 42l8-5m14 5-8-5" stroke="#B9F1FA" stroke-width="1.5" stroke-linejoin="round"/>
  </g>
</svg>
