<svg xmlns="http://www.w3.org/2000/svg" viewBox="0 0 64 64" fill="none">
  <title>Leatherface — Butcher mallet and meat cleaver</title>
  <g data-variation-frame="true" stroke-linecap="round" stroke-linejoin="round">
    <path d="M16 6h32v9h8v34h-8v9H16v-9H8V15h8z" fill="#211719" stroke="#B63A45" stroke-width="2.5"/>
    <path d="M16 12h32M16 52h32M12 20v24m40-24v24" stroke="#A97A55" stroke-width="1.8" stroke-dasharray="5 4"/>
    <path d="m8 15 8 8m40-8-8 8m8 26-8-8M8 49l8-8" stroke="#E2C8A5" stroke-width="1.6"/>
  </g>
  <g data-variation-symbol="true" stroke-linecap="round" stroke-linejoin="round">
    <path d="m17 18 14 8-5 9-14-8z" fill="#5B4032" stroke="#E2C8A5" stroke-width="2.2"/>
    <path d="m26 31 17 22" stroke="#A97A55" stroke-width="4"/>
    <path d="m38 15 14 3-2 17-15-3z" fill="#454449" stroke="#D7D6D8" stroke-width="2.2"/>
    <path d="m42 33-5 21" stroke="#B63A45" stroke-width="3.5"/>
    <circle cx="48" cy="22" r="2" fill="#B63A45"/>
  </g>
</svg>
