<svg xmlns="http://www.w3.org/2000/svg" viewBox="0 0 64 64" fill="none">
  <title>Kitana — Assassin sharpened bladed fans and parry</title>
  <g data-variation-frame="true" stroke="#7E5CFF" stroke-linecap="round" stroke-linejoin="round">
    <path d="m32 5 7 8 10-3 1 11 9 5-6 9 4 10-11 3-2 11-12-5-12 5-2-11-11-3 4-10-6-9 9-5 1-11 10 3z" fill="#171525" stroke-width="2.4"/>
    <path d="M16 16 8 8m40 8 8-8M8 56l8-8m40 8-8-8" stroke="#FF557E" stroke-width="1.8"/>
  </g>
  <g data-variation-symbol="true" stroke-linecap="round" stroke-linejoin="round">
    <path d="M30 48 14 25l4-9 6 7 3-9 5 10z" fill="#37254D" stroke="#FF557E" stroke-width="2.2"/>
    <path d="M34 48 50 25l-4-9-6 7-3-9-5 10z" fill="#37254D" stroke="#FF557E" stroke-width="2.2"/>
    <path d="m30 48-10-27m14 27 10-27M16 36l11-4m21 4-11-4" stroke="#D8D0FF" stroke-width="1.8"/>
    <path d="m27 50 5-5 5 5" stroke="#7E5CFF" stroke-width="2.5"/>
  </g>
</svg>
