<svg xmlns="http://www.w3.org/2000/svg" viewBox="0 0 64 64" fill="none">
  <title>Kitana — Mournful Jade staff and glaive</title>
  <g data-variation-frame="true" stroke-linecap="round" stroke-linejoin="round">
    <path d="M32 5C24 15 11 24 11 39c0 12 9 20 21 20s21-8 21-20C53 24 40 15 32 5z" fill="#101F20" stroke="#47CFA0" stroke-width="2.5"/>
    <path d="M20 13c-5 9-8 16-8 23m32-23c5 9 8 16 8 23" stroke="#8B78D7" stroke-width="1.8" stroke-dasharray="4 4"/>
    <circle cx="32" cy="8" r="2.3" fill="#D9FFF3"/>
  </g>
  <g data-variation-symbol="true" stroke-linecap="round" stroke-linejoin="round">
    <path d="m18 50 28-34" stroke="#D9FFF3" stroke-width="3"/>
    <path d="m43 13 8-1-2 8-5-4zM18 46l-5 6 8-1z" fill="#47CFA0" stroke="#B9F5E1" stroke-width="1.8"/>
    <path d="M25 41c-5-3-8-7-9-12 5 2 9 1 13-2m10-3c4 2 7 5 8 9-4-1-8 0-11 3" stroke="#8B78D7" stroke-width="2"/>
    <path d="m26 19 6 3-4 6" stroke="#47CFA0" stroke-width="2"/>
  </g>
</svg>
