<svg xmlns="http://www.w3.org/2000/svg" viewBox="0 0 64 64" fill="none">
  <title>Jinsei Chamber — throwable cauldron of Jinsei energy</title>
  <g data-game-icon-frame="true" stroke="#62D2D4" stroke-linecap="round" stroke-linejoin="round">
    <path d="M32 5 55 18v28L32 59 9 46V18z" fill="#122124" stroke-width="2.5"/>
    <path d="M15 15c4 4 5 8 3 12m31-12c-4 4-5 8-3 12M15 49c4-4 5-8 3-12m31 12c-4-4-5-8-3-12" stroke="#477B83" stroke-width="1.7"/>
  </g>
  <g data-game-icon-symbol="true" stroke-linecap="round" stroke-linejoin="round">
    <ellipse cx="32" cy="22" rx="19" ry="7" fill="#75D2D5" stroke="#E2DDD4" stroke-width="2.5"/>
    <path d="M14 23c1 18 7 29 18 29s17-11 18-29" fill="#514B4B" stroke="#CBC2B8" stroke-width="2.5"/>
    <path d="M22 51v6m20-6v6M17 32h-7m37 0h7" stroke="#A79B90" stroke-width="3.2"/>
    <path d="M23 17c-2-5 4-6 2-11m10 11c-2-5 4-6 2-11m8 13c-1-4 3-5 2-9" stroke="#A8FFF5" stroke-width="2"/>
  </g>
</svg>
