<svg xmlns="http://www.w3.org/2000/svg" viewBox="0 0 64 64" fill="none">
  <title>Jinsei Chamber — central Jinsei energy grab</title>
  <g data-game-icon-frame="true" stroke="#8B7DE0" stroke-linecap="round" stroke-linejoin="round">
    <path d="M18 7h28l11 11v28L46 57H18L7 46V18z" fill="#151C28" stroke-width="2.5"/>
    <path d="M12 18h8m24 0h8M12 46h8m24 0h8" stroke="#64D6D1" stroke-width="1.8"/>
  </g>
  <g data-game-icon-symbol="true" stroke-linecap="round" stroke-linejoin="round">
    <circle cx="32" cy="32" r="22" fill="#1E5260" stroke="#7FE3E4" stroke-width="2.5"/>
    <path d="M24 39V25c0-3 4-3 4 0v7-13c0-3 4-3 4 0v12-14c0-3 4-3 4 0v14-10c0-3 4-3 4 0v15l5-5c3-3 6 1 3 4L37 47H27l-7-10c-2-3 2-5 4-2" fill="#BDF8EF" stroke="#F0FFFF" stroke-width="1.8"/>
    <path d="M13 19 8 14m43 5 5-5M13 45l-5 5m43-5 5 5" stroke="#8B7DE0" stroke-width="2.5"/>
  </g>
</svg>
