<svg xmlns="http://www.w3.org/2000/svg" viewBox="0 0 64 64" fill="none">
  <title>Outworld — conquered realm under twin moons</title>
  <g data-game-icon-frame="true">
    <path d="M32 5 52 14l7 18-7 18-20 9-20-9-7-18 7-18 20-9Z" fill="#24160E" stroke="#C4773B" stroke-width="2"/>
    <path d="M12 17 20 22m32-5-8 5M9 42l10-2m36 2-10-2" stroke="#F0C18F" stroke-width="1.5" stroke-linecap="round"/>
  </g>
  <g data-game-icon-symbol="true">
    <circle cx="23" cy="21" r="8" fill="#D8A85E" stroke="#FFE0AE" stroke-width="2"/><circle cx="39" cy="18" r="5" fill="#8F5941" stroke="#F4C6A0" stroke-width="1.5"/>
    <path d="M15 49 23 31l5 7 5-14 6 15 5-8 6 18H15Z" fill="#763A2A" stroke="#FFD2A2" stroke-width="2" stroke-linejoin="round"/>
    <path d="m28 49 4-10 4 10" stroke="#D27B43" stroke-width="1.5"/>
  </g>
</svg>
