<svg xmlns="http://www.w3.org/2000/svg" viewBox="0 0 64 64" fill="none">
  <title>Outworld Marketplace — jump from the tethered beast</title>
  <g data-game-icon-frame="true" stroke="#61C39A" stroke-linecap="round" stroke-linejoin="round">
    <path d="M8 18 19 7h26l11 11v28L45 57H19L8 46z" fill="#162019" stroke-width="2.5"/>
    <path d="m13 13 7 7m31-7-7 7M13 51l7-7m31 7-7-7" stroke="#A47B53" stroke-width="1.8"/>
  </g>
  <g data-game-icon-symbol="true" stroke-linecap="round" stroke-linejoin="round">
    <path d="M7 47c6-14 13-20 24-17l10-9 8 3 6 9-7 5-6-3-5 13z" fill="#695046" stroke="#C8B197" stroke-width="2.5"/>
    <path d="m42 21-2-8 7 6m-19 12-6-9M19 45l-4 10m15-9 2 10" stroke="#DDCAB0" stroke-width="2.5"/>
    <circle cx="48" cy="29" r="2" fill="#D45E49"/>
    <path d="M24 25c6-9 15-14 26-14m-6-5 6 5-4 6" stroke="#61C39A" stroke-width="2.5"/>
  </g>
</svg>
