<svg xmlns="http://www.w3.org/2000/svg" viewBox="0 0 64 64" fill="none">
  <title>Goro — Tigrar Fury: tiger-faced Shokan fire breath</title>
  <g data-variation-frame="true">
    <path d="m32 4 8 8 12-3-1 13 9 8-9 8 1 13-12-3-8 12-8-12-12 3 1-13-9-8 9-8-1-13 12 3 8-8Z" fill="#221207" stroke="#F08A32" stroke-width="2"/>
    <path d="m16 15 8 5m24-5-8 5M14 45l10-4m26 4-10-4" stroke="#EBC34F" stroke-width="1.6" stroke-linecap="round"/>
  </g>
  <g data-variation-symbol="true">
    <path d="M19 18h26l6 11-7 15-12 7-12-7-7-15 6-11Z" fill="#F08A32" stroke="#FFE2A5" stroke-width="2" stroke-linejoin="round"/>
    <path d="m20 23 8 6-7 2m23-8-8 6 7 2M28 39l4-3 4 3-4 4-4-4Z" stroke="#221207" stroke-width="2" stroke-linecap="round" stroke-linejoin="round"/>
    <path d="M32 44c7 0 12 1 16 5-7 0-10 4-16 10-6-6-9-10-16-10 4-4 9-5 16-5Z" fill="#EBC34F" stroke="#FFF1A8" stroke-width="2" stroke-linejoin="round"/>
    <path d="m32 48-3 6m3-6 3 6" stroke="#F08A32" stroke-width="1.8" stroke-linecap="round"/>
  </g>
</svg>
