<svg xmlns="http://www.w3.org/2000/svg" viewBox="0 0 64 64" fill="none">
  <title>Reptile — Nimble: slowed time field</title>
  <g data-variation-frame="true">
    <path d="M18 7h28l-7 9v8l9 8-9 8v8l7 9H18l7-9v-8l-9-8 9-8v-8l-7-9Z" fill="#182014" stroke="#9CCB64" stroke-width="2" stroke-linejoin="round"/>
    <path d="M21 11h22M21 53h22" stroke="#E3FFC0" stroke-width="1.5" stroke-linecap="round"/>
  </g>
  <g data-variation-symbol="true">
    <path d="M25 17h14c0 8-3 10-7 14-4-4-7-6-7-14Zm0 30h14c0-8-3-10-7-14-4 4-7 6-7 14Z" fill="#A8D971" stroke="#F0FFD8" stroke-width="2" stroke-linejoin="round"/>
    <path d="M32 25v14" stroke="#30411F" stroke-width="2" stroke-linecap="round"/>
    <path d="M15 23h5m-7 9h7m-5 9h5M44 19l5-3m-4 12 7-1m-8 12 6 3" stroke="#76B94A" stroke-width="2" stroke-linecap="round"/>
  </g>
</svg>
