<svg xmlns="http://www.w3.org/2000/svg" viewBox="0 0 64 64" fill="none">
  <title>Reptile — Noxious: corrosive poison aura</title>
  <g data-variation-frame="true">
    <path d="M9 19c6-9 14-14 23-14s17 5 23 14l-4 8 6 7-7 6 2 10-10 1-5 8-8-5-9 4-4-9-10-2 3-9-6-7 7-6-1-6Z" fill="#17210E" stroke="#86B94E" stroke-width="2" stroke-linejoin="round"/>
    <circle cx="13" cy="22" r="2.5" fill="#B9E866"/><circle cx="51" cy="44" r="2" fill="#DFFF8D"/><circle cx="48" cy="16" r="1.5" fill="#B9E866"/>
  </g>
  <g data-variation-symbol="true">
    <path d="M16 43c-4-5 0-12 6-11-2-7 7-11 12-6 4-6 14-2 12 5 8 0 10 10 4 14H18l-2-2Z" fill="#769E35" stroke="#E3FF9A" stroke-width="2" stroke-linejoin="round"/>
    <path d="M24 47c-1 4-5 5-6 9m16-9c0 5-3 7-3 10m13-10c1 4 4 5 5 8" stroke="#A7D957" stroke-width="2" stroke-linecap="round"/>
    <circle cx="27" cy="34" r="2" fill="#233313"/><circle cx="38" cy="31" r="2.5" fill="#233313"/>
  </g>
</svg>
