<svg xmlns="http://www.w3.org/2000/svg" viewBox="0 0 64 64" fill="none">
  <title>Kung Jin — Shaolin chakram projectile</title>
  <g data-variation-frame="true" stroke-linecap="round" stroke-linejoin="round">
    <circle cx="32" cy="32" r="27" fill="#211C14" stroke="#E2A84A" stroke-width="2.4"/>
    <path d="M32 5v7m0 40v7M5 32h7m40 0h7M13 13l5 5m28 28 5 5M51 13l-5 5M18 46l-5 5" stroke="#C9673F" stroke-width="2"/>
    <circle cx="32" cy="32" r="22" stroke="#F2D28B" stroke-width="1.5" stroke-dasharray="1 6"/>
  </g>
  <g data-variation-symbol="true" stroke-linecap="round" stroke-linejoin="round">
    <path d="M20 18c9-5 20-1 25 8s2 20-7 25c2-6 1-11-2-16s-8-8-16-8z" fill="#4D3020" stroke="#E2A84A" stroke-width="2.2"/>
    <path d="M25 21c6-1 12 2 15 8 3 5 2 11-2 16-1-6-4-11-9-14-3-2-6-3-10-3" stroke="#F2D28B" stroke-width="2"/>
    <path d="M14 43c10 2 20 0 28-6m-1-21 4 5-6 2" stroke="#C9673F" stroke-width="2"/>
    <circle cx="24" cy="25" r="3" fill="#C9673F"/>
  </g>
</svg>
