<svg xmlns="http://www.w3.org/2000/svg" viewBox="0 0 64 64" fill="none">
  <title>Quan Chi — Sorcerer: spell amplification field</title>
  <g data-variation-frame="true">
    <path d="M32 5 54 17l4 25-17 17H23L6 42l4-25L32 5Z" fill="#111B1A" stroke="#63C8A7" stroke-width="2" stroke-linejoin="round"/>
    <path d="m11 18 8 3-4 7m38-10-8 3 4 7M23 57l2-8h14l2 8" stroke="#C6F8E4" stroke-width="1.5" stroke-linecap="round" stroke-linejoin="round"/>
  </g>
  <g data-variation-symbol="true">
    <ellipse cx="32" cy="40" rx="17" ry="7" fill="#173C35" stroke="#74E1BB" stroke-width="2"/>
    <ellipse cx="32" cy="40" rx="9" ry="3.5" stroke="#D9FFF1" stroke-width="1.5" stroke-dasharray="2 3"/>
    <path d="M32 14c7 0 11 5 10 11-1 5-5 7-8 9v4h-4v-4c-3-2-7-4-8-9-1-6 3-11 10-11Z" fill="#87E6C5" stroke="#E7FFF7" stroke-width="2"/>
    <path d="m27 24 3 2m7-2-3 2m-5 5h6" stroke="#173C35" stroke-width="1.5" stroke-linecap="round"/>
  </g>
</svg>
