<svg xmlns="http://www.w3.org/2000/svg" viewBox="0 0 64 64" fill="none">
  <title>Quan Chi — Warlock: linked combat portals</title>
  <g data-variation-frame="true">
    <path d="M18 8C8 14 4 24 6 34s10 18 20 21l6-7 6 7c10-3 18-11 20-21s-2-20-12-26l-7 5H25l-7-5Z" fill="#1B1018" stroke="#D06A9B" stroke-width="2" stroke-linejoin="round"/>
    <path d="M15 13c-5 7-7 15-4 23m38-23c5 7 7 15 4 23" stroke="#FFB6D8" stroke-width="1.5" stroke-linecap="round"/>
  </g>
  <g data-variation-symbol="true">
    <path d="M27 16c-9 2-14 8-14 16s5 14 14 16c-5-4-7-9-7-16s2-12 7-16Z" fill="#E07AA9" stroke="#FFD6E8" stroke-width="2"/>
    <path d="M37 16c9 2 14 8 14 16s-5 14-14 16c5-4 7-9 7-16s-2-12-7-16Z" fill="#8D3C70" stroke="#FFD6E8" stroke-width="2"/>
    <path d="M24 32h16m-4-4 4 4-4 4" stroke="#FFE56B" stroke-width="2" stroke-linecap="round" stroke-linejoin="round"/>
  </g>
</svg>
