<svg xmlns="http://www.w3.org/2000/svg" viewBox="0 0 64 64" fill="none">
  <title>Refugee Kamp — jump from the parked ATV</title>
  <g data-game-icon-frame="true">
    <path d="M9 12h36l10 10 3 23-13 12H19L7 45l2-33Z" fill="#211714" stroke="#9E6955" stroke-width="2"/>
    <path d="M13 16h12m25 7-8 4M12 48l10-5m29 8-9-6" stroke="#DEC2B5" stroke-width="1.5" stroke-linecap="round"/>
  </g>
  <g data-game-icon-symbol="true">
    <circle cx="20" cy="45" r="7" fill="#27292B" stroke="#E4DDD5" stroke-width="2"/><circle cx="47" cy="45" r="7" fill="#27292B" stroke="#E4DDD5" stroke-width="2"/>
    <path d="M19 41h26l-5-13H28l-9 13Zm20-13 7-5h7M28 28l-5-8h-8" fill="#8B5B49" stroke="#F2D7C7" stroke-width="2" stroke-linecap="round" stroke-linejoin="round"/>
    <path d="M17 18C25 9 37 7 48 11m-6-5 6 5-5 6" stroke="#E6754B" stroke-width="2.5" stroke-linecap="round" stroke-linejoin="round"/>
  </g>
</svg>
