<svg xmlns="http://www.w3.org/2000/svg" viewBox="0 0 64 64" fill="none">
  <title>Refugee Kamp — burning fuel can</title>
  <g data-game-icon-frame="true">
    <path d="M18 7h28l12 16-4 24-13 11H23L10 47 6 23 18 7Z" fill="#25130E" stroke="#BC603B" stroke-width="2"/>
    <path d="M13 23c5-8 11-12 19-12s14 4 19 12M14 47l9-4m27 4-9-4" stroke="#F2C19C" stroke-width="1.5" stroke-linecap="round"/>
  </g>
  <g data-game-icon-symbol="true">
    <path d="M22 28h22l3 24H19l3-24Z" fill="#814A35" stroke="#F1D0BD" stroke-width="2"/>
    <path d="M23 34h22m-24 9h25M27 28v-5h10v5" stroke="#44261C" stroke-width="1.5"/>
    <path d="M32 7c7 8 11 14 11 20 0 6-5 10-11 10s-11-4-11-10c0-4 3-9 7-14-1 6 3 7 5 3 1-3 0-6-1-9Z" fill="#F07034" stroke="#FFE1A8" stroke-width="2"/>
    <path d="M32 20c4 4 4 9 0 12-4-3-4-6 0-12Z" fill="#FFD24C"/>
  </g>
</svg>
