<svg xmlns="http://www.w3.org/2000/svg" viewBox="0 0 64 64" fill="none">
  <title>Refugee Kamp — spiked war club strike</title>
  <g data-game-icon-frame="true">
    <path d="m32 5 7 8 11-2 2 11 7 7-6 9 3 11-11 3-6 7-7-6-8 6-5-7-11-3 3-11-6-9 7-7 2-11 11 2 7-8Z" fill="#211710" stroke="#9F6C45" stroke-width="2"/>
    <circle cx="32" cy="32" r="23" stroke="#E2C7A8" stroke-width="1.5" stroke-dasharray="4 5"/>
  </g>
  <g data-game-icon-symbol="true">
    <path d="m17 52 22-29 7 6-22 29-7-6Z" fill="#775035" stroke="#F1D6B8" stroke-width="2"/>
    <path d="m35 25-2-10 7 3 4-8 4 8 8-2-3 9 7 5-9 3 1 9-8-5-7 6 1-10-9-3 6-5Z" fill="#8C5B3C" stroke="#FFE0C1" stroke-width="2" stroke-linejoin="round"/>
    <path d="m20 48 7 6m-2-11 7 6" stroke="#40291D" stroke-width="1.5"/>
  </g>
</svg>
