<svg xmlns="http://www.w3.org/2000/svg" viewBox="0 0 64 64" fill="none">
  <title>Triborg — Cyber Sub-Zero: cybernetic ice core</title>
  <g data-variation-frame="true">
    <path d="m32 5 8 7 11-1 2 11 7 10-7 10-2 11-11-1-8 7-8-7-11 1-2-11-7-10 7-10 2-11 11 1 8-7Z" fill="#0D1C25" stroke="#61C7E8" stroke-width="2"/>
    <path d="M32 8v8M8 32h8m40 0h-8M32 56v-8" stroke="#D3F8FF" stroke-width="1.5"/>
  </g>
  <g data-variation-symbol="true">
    <path d="M32 15v34M17 24l30 16M17 40l30-16M32 15l-5 6m5-6 5 6m-20 3 8 1m-8-1 3 7m27-7-8 1m8-1-3 7M17 40l8-1m-8 1 3-7m27 7-8-1m8 1-3-7M32 49l-5-6m5 6 5-6" stroke="#AEEBFA" stroke-width="2" stroke-linecap="round" stroke-linejoin="round"/>
    <circle cx="32" cy="32" r="8" fill="#2C7D9D" stroke="#E5FCFF" stroke-width="2"/>
    <path d="M28 29h8v6h-8z" fill="#102D3B" stroke="#78DDF5" stroke-width="1.5"/>
  </g>
</svg>
