<svg xmlns="http://www.w3.org/2000/svg" viewBox="0 0 64 64" fill="none">
  <title>Triborg — Sektor: homing missile</title>
  <g data-variation-frame="true">
    <path d="M9 13h17l6-7 6 7h17v17l-7 5 4 16-16-4-4 11-4-11-16 4 4-16-7-5V13Z" fill="#251012" stroke="#D8555A" stroke-width="2" stroke-linejoin="round"/>
    <path d="M13 17h11m27 0H40M14 45l10-4m26 4-10-4" stroke="#FFC3BF" stroke-width="1.5" stroke-linecap="round"/>
  </g>
  <g data-variation-symbol="true">
    <path d="M21 41 37 16l9 2 2 9-25 16-2-2Z" fill="#B83C43" stroke="#FFE1D8" stroke-width="2" stroke-linejoin="round"/>
    <path d="m38 17 9 10m-22 12-8 10m9-14 7 7" stroke="#742229" stroke-width="2"/>
    <path d="m20 40-6-1-3 11 11-4-2-6Z" fill="#F27A45" stroke="#FFD6B6" stroke-width="1.5"/>
    <circle cx="43" cy="22" r="2" fill="#FFDC68"/>
  </g>
</svg>
