<svg xmlns="http://www.w3.org/2000/svg" viewBox="0 0 64 64" fill="none">
  <title>Cassie Cage — Hollywood: star sunglasses and camera flash</title>
  <g data-variation-frame="true">
    <rect x="6" y="8" width="52" height="48" rx="9" fill="#171629" stroke="#8E7CFF" stroke-width="2"/>
    <path d="M13 8v7m10-7v5m18-5v5m10-5v7M13 56v-7m38 7v-7" stroke="#FFCF64" stroke-width="1.5"/>
  </g>
  <g data-variation-symbol="true">
    <path d="M13 28c5-3 11-4 18 0v5c-1 6-12 8-16 1l-2-6Zm38 0c-5-3-11-4-18 0v5c1 6 12 8 16 1l2-6Z" fill="#8E7CFF" stroke="#EAE6FF" stroke-width="2" stroke-linejoin="round"/>
    <path d="M31 30h2" stroke="#EAE6FF" stroke-width="2" stroke-linecap="round"/>
    <path d="m32 12 2.5 6 6.5.5-5 4 1.6 6.5-5.6-3.5-5.6 3.5 1.6-6.5-5-4 6.5-.5 2.5-6Z" fill="#FFCF64" stroke="#FFF1B7" stroke-width="1.5" stroke-linejoin="round"/>
    <path d="m48 42 2 4 4 2-4 2-2 4-2-4-4-2 4-2 2-4Z" fill="#FFCF64"/>
  </g>
</svg>
