<svg xmlns="http://www.w3.org/2000/svg" viewBox="0 0 64 64" fill="none">
  <title>Shinnok — Bone Shaper: conjured bone weapon</title>
  <g data-variation-frame="true">
    <path d="M18 7c3 0 5 2 5 5l9 4 9-4c0-3 2-5 5-5s5 2 5 5c0 2-1 4-3 5l5 10c3 0 5 2 5 5s-2 5-5 5l-5 10c2 1 3 3 3 5 0 3-2 5-5 5s-5-2-5-5l-9-4-9 4c0 3-2 5-5 5s-5-2-5-5c0-2 1-4 3-5l-5-10c-3 0-5-2-5-5s2-5 5-5l5-10c-2-1-3-3-3-5 0-3 2-5 5-5Z" fill="#201B16" stroke="#D8C7A7" stroke-width="2"/>
    <path d="m23 17 9 4 9-4m0 30-9-4-9 4" stroke="#FFF3D8" stroke-width="1.5"/>
  </g>
  <g data-variation-symbol="true">
    <path d="M18 47 40 15c3-4 9 1 6 5L24 52l-6-5Z" fill="#E6D7B8" stroke="#FFF8E8" stroke-width="2" stroke-linejoin="round"/>
    <path d="m37 18 9-7 2 2-5 10m-17 25-9 5-3-3 8-8" stroke="#B99972" stroke-width="2" stroke-linecap="round" stroke-linejoin="round"/>
    <path d="M23 39c5 0 9 3 11 7" stroke="#644D37" stroke-width="1.5" stroke-linecap="round"/>
  </g>
</svg>
