<svg xmlns="http://www.w3.org/2000/svg" viewBox="0 0 64 64" fill="none">
  <title>Sonya Blade — Demolition: timed grenades</title>
  <g data-variation-frame="true">
    <path d="M20 6h24l14 18-6 24-20 11-20-11-6-24L20 6Z" fill="#241A10" stroke="#C28B46" stroke-width="2"/>
    <path d="m10 24 8 2m36-2-8 2M15 47l7-5m27 5-7-5M24 9l2 8h12l2-8" stroke="#F1D29D" stroke-width="1.5"/>
  </g>
  <g data-variation-symbol="true">
    <path d="M22 27h17l5 7-4 16H21l-4-16 5-7Z" fill="#6F7651" stroke="#F2E5B8" stroke-width="2" stroke-linejoin="round"/>
    <path d="M26 27v-6h10v6m-7-6v-5h9l3 4" stroke="#CDD29A" stroke-width="2" stroke-linecap="round" stroke-linejoin="round"/>
    <path d="M23 34h15m-17 6h20M27 28l-3 21m11-21 3 21" stroke="#333821" stroke-width="1.5"/>
    <circle cx="43" cy="17" r="3" fill="#F46A3A" stroke="#FFE0B2" stroke-width="1.5"/>
  </g>
</svg>
