<svg xmlns="http://www.w3.org/2000/svg" viewBox="0 0 64 64" fill="none">
  <title>Sonya Blade — Special Forces: support drone</title>
  <g data-variation-frame="true">
    <path d="M13 9h13l6 5 6-5h13l4 13-5 10 5 10-4 13H38l-6-5-6 5H13L9 42l5-10-5-10 4-13Z" fill="#0F1E20" stroke="#54A9AE" stroke-width="2"/>
    <path d="M16 13h8m24 0h-8M16 51h8m24 0h-8" stroke="#BCE6E8" stroke-width="1.5" stroke-linecap="round"/>
  </g>
  <g data-variation-symbol="true">
    <path d="M21 27h22l5 5-5 5H21l-5-5 5-5Z" fill="#4A858A" stroke="#D9F8F8" stroke-width="2"/>
    <path d="m21 27-6-8-6 2 7 11m27-5 6-8 6 2-7 11M23 37l-4 8m22-8 4 8" stroke="#82C7C9" stroke-width="2" stroke-linecap="round" stroke-linejoin="round"/>
    <circle cx="32" cy="32" r="4" fill="#E76C4E" stroke="#FFF2D0" stroke-width="1.5"/>
  </g>
</svg>
