<svg xmlns="http://www.w3.org/2000/svg" viewBox="0 0 64 64" fill="none">
  <title>Tremor — Crystalline: crystal armor</title>
  <g data-variation-frame="true">
    <path d="m32 4 17 8 11 20-11 20-17 8-17-8L4 32l11-20 17-8Z" fill="#151323" stroke="#9A78D0" stroke-width="2"/>
    <path d="m32 8 8 8 10-1-2 11 8 6-8 6 2 11-10-1-8 8-8-8-10 1 2-11-8-6 8-6-2-11 10 1 8-8Z" stroke="#DCCBFF" stroke-width="1.5"/>
  </g>
  <g data-variation-symbol="true">
    <path d="m32 12 13 12-4 23-9 6-9-6-4-23 13-12Z" fill="#8C6BC5" stroke="#F2EAFF" stroke-width="2" stroke-linejoin="round"/>
    <path d="m32 12 4 18-4 23-4-23 4-18Zm-13 12 9 6-5 17m22-23-9 6 5 17" stroke="#CFC0FF" stroke-width="1.5" stroke-linejoin="round"/>
    <path d="M28 30h8" stroke="#FFF7FF" stroke-width="2"/>
  </g>
</svg>
