<svg xmlns="http://www.w3.org/2000/svg" viewBox="0 0 64 64" fill="none">
  <title>Tremor — Metallic: molten metal form</title>
  <g data-variation-frame="true">
    <path d="M32 5c15 0 27 12 27 27 0 7-3 14-8 19-1-8-5-8-7-2-2 7-9 12-16 9-5-2-5-8-1-11 3-3 1-8-3-7-8 3-15-1-18-8C6 17 17 5 32 5Z" fill="#201A17" stroke="#B08A70" stroke-width="2"/>
    <path d="M11 21c7-2 9 4 6 9m36-9c-7-2-9 4-6 9M15 46c6 4 10 3 13-2" stroke="#F0D3BD" stroke-width="1.5" stroke-linecap="round"/>
  </g>
  <g data-variation-symbol="true">
    <path d="M32 13c8 9 14 18 14 27 0 8-6 13-14 13s-14-5-14-13c0-9 6-18 14-27Z" fill="#9D7864" stroke="#FFE3CE" stroke-width="2"/>
    <path d="M32 13v40c-8 0-14-5-14-13 0-9 6-18 14-27Z" fill="#D8B36E"/>
    <path d="M26 35c4-3 8-3 12 0m-9 8c2 2 4 2 6 0" stroke="#4D3A30" stroke-width="1.5" stroke-linecap="round"/>
  </g>
</svg>
