<svg xmlns="http://www.w3.org/2000/svg" viewBox="0 0 64 64" fill="none">
  <title>Liu Kang — Flame Fist dual burning fist buff</title>
  <g data-variation-frame="true" stroke-linecap="round" stroke-linejoin="round">
    <path d="M18 56C5 43 7 27 18 11c-1 10 4 12 7 5 4-7 5-10 7-13 6 9 5 18 10 12 3-4 5-6 6-9 10 16 14 34-2 50z" fill="#21120E" stroke="#FF8B2C" stroke-width="2.5"/>
    <path d="M12 44c-1-8 2-15 8-22m32 22c1-8-2-15-8-22" stroke="#FFD84A" stroke-width="1.9"/>
    <path d="m17 55 5-7m25 7-5-7" stroke="#F0442E" stroke-width="2"/>
  </g>
  <g data-variation-symbol="true" stroke-linecap="round" stroke-linejoin="round">
    <path d="M13 35c0-5 3-8 8-8h8v13l-6 9-7-4c-3-2-4-6-3-10z" fill="#542219" stroke="#F0442E" stroke-width="2.3"/>
    <path d="M51 35c0-5-3-8-8-8h-8v13l6 9 7-4c3-2 4-6 3-10z" fill="#542219" stroke="#F0442E" stroke-width="2.3"/>
    <path d="M18 27c-2-5 2-8 3-12 4 4 5 7 3 12m22 0c2-5-2-8-3-12-4 4-5 7-3 12" fill="#FFD84A" stroke="#FF8B2C" stroke-width="2"/>
    <path d="M17 37h12m18 0H35" stroke="#FFE9A1" stroke-width="1.8"/>
  </g>
</svg>
