<svg xmlns="http://www.w3.org/2000/svg" viewBox="0 0 64 64" fill="none">
  <title>Kenshi — Balanced telekinetic spirit ally</title>
  <g data-variation-frame="true" stroke-linecap="round">
    <path d="M28 6C15 8 7 18 7 32s8 24 21 26" stroke="#5AD6E8" stroke-width="2.5"/>
    <path d="M36 6c13 2 21 12 21 26s-8 24-21 26" stroke="#E85A7A" stroke-width="2.5"/>
    <path d="M17 13c5 4 8 9 8 15m22-15c-5 4-8 9-8 15M17 51c5-4 8-9 8-15m22 15c-5-4-8-9-8-15" stroke="#8EA4B8" stroke-width="1.6" stroke-dasharray="3 4"/>
  </g>
  <g data-variation-symbol="true" stroke-linecap="round" stroke-linejoin="round">
    <path d="M17 49c1-10 4-17 10-19-4-3-5-8-3-12l8-8 8 8c2 4 1 9-3 12 6 2 9 9 10 19" fill="#172831" stroke="#5AD6E8" stroke-width="2.2"/>
    <path d="M24 21h16M28 26h8M32 31v18" stroke="#E85A7A" stroke-width="2"/>
    <path d="m31 46-7 7m9-7 7 7M13 34l7-2m31 2-7-2" stroke="#D7F6FA" stroke-width="1.8"/>
  </g>
</svg>
