<svg xmlns="http://www.w3.org/2000/svg" viewBox="0 0 64 64" fill="none">
  <title>Kenshi — Possessed demon spirit from a portal</title>
  <g data-variation-frame="true" stroke-linecap="round" stroke-linejoin="round">
    <path d="M11 25 6 14l12 5 4-12 10 8L42 7l4 12 12-5-5 11" fill="#211422" stroke="#B850D6" stroke-width="2.4"/>
    <path d="M9 34c1 14 9 23 23 25 14-2 22-11 23-25" stroke="#E45B64" stroke-width="2.5"/>
    <path d="m10 42 8-3m36 3-8-3M20 55l4-7m20 7-4-7" stroke="#6F3A90" stroke-width="1.8"/>
  </g>
  <g data-variation-symbol="true" stroke-linecap="round" stroke-linejoin="round">
    <ellipse cx="32" cy="36" rx="15" ry="18" fill="#29162E" stroke="#B850D6" stroke-width="2.2"/>
    <path d="m20 28 8 4 4-8 4 8 8-4-3 11 4 10-13 5-13-5 4-10z" fill="#482044" stroke="#E45B64" stroke-width="2"/>
    <path d="m25 40 5 3m9-3-5 3m-6 6h8" stroke="#FFD0D5" stroke-width="2"/>
    <path d="M14 35c-4 4-3 9 2 11m32-11c4 4 3 9-2 11" stroke="#B850D6" stroke-width="2"/>
  </g>
</svg>
