<svg xmlns="http://www.w3.org/2000/svg" viewBox="0 0 64 64" fill="none">
  <title>Emperor's Courtyard stage — Outworld throne and ceremonial columns</title>
  <g data-game-icon-frame="true">
    <path d="M14 4h36l10 14-5 28 4 9H5l4-9-5-28L14 4Z" fill="#1C110D" stroke="#A45E3D" stroke-width="2"/>
    <path d="M18 9 8 21m38-12 10 12M9 48h46" stroke="#C9A451" stroke-width="1.5" stroke-linecap="round"/>
  </g>
  <g data-game-icon-symbol="true">
    <path d="M10 19h10v33H10zm34 0h10v33H44z" fill="#8D6045" stroke="#DFC09C" stroke-width="2"/>
    <path d="M7 17h16l-3-6H10l-3 6Zm34 0h16l-3-6H44l-3 6Z" fill="#C9A451" stroke="#F5D989" stroke-width="1.8" stroke-linejoin="round"/>
    <path d="M25 23h14v13l6 16H19l6-16V23Z" fill="#A45E3D" stroke="#E8AA84" stroke-width="2"/>
    <path d="M28 28h8m-10 9h12M16 23v25m32-25v25" stroke="#1C110D" stroke-width="2" stroke-linecap="round"/>
  </g>
</svg>
