<svg xmlns="http://www.w3.org/2000/svg" viewBox="0 0 64 64" fill="none">
  <title>Jinsei Chamber stage — glowing life-force sphere in the temple vault</title>
  <g data-game-icon-frame="true">
    <path d="M32 3 56 19v28L42 59H22L8 47V19L32 3Z" fill="#0A1820" stroke="#4D99B4" stroke-width="2"/>
    <path d="M13 22 32 8l19 14M13 45l12 10m26-10L39 55" stroke="#63C9A4" stroke-width="1.5" stroke-linecap="round"/>
  </g>
  <g data-game-icon-symbol="true">
    <path d="M13 50V20l8-7v37m22 0V13l8 7v30" stroke="#7B8790" stroke-width="4" stroke-linejoin="round"/>
    <circle cx="32" cy="31" r="14" fill="#4D99B4" stroke="#C4F3FF" stroke-width="2"/>
    <path d="M27 18c-4 7 5 9 0 16-3 4 1 9 5 10m7-24c4 5-4 8 0 13 3 4 0 8-4 11" stroke="#63C9A4" stroke-width="2" stroke-linecap="round"/>
    <path d="M18 51h28M24 55h16" stroke="#B7C5CA" stroke-width="2" stroke-linecap="round"/>
  </g>
</svg>
