<svg xmlns="http://www.w3.org/2000/svg" viewBox="0 0 64 64" fill="none">
  <title>Kuatan Jungle stage — vine-covered waterfall and Shokan idol</title>
  <g data-game-icon-frame="true">
    <path d="m32 3 19 7 10 20-8 23-21 8-21-8-8-23 10-20 19-7Z" fill="#0C1A12" stroke="#4F8E55" stroke-width="2"/>
    <path d="M15 13 8 28m41-15 7 15M10 44l12 12m32-12L42 56" stroke="#A07945" stroke-width="1.5" stroke-linecap="round"/>
  </g>
  <g data-game-icon-symbol="true">
    <path d="M24 9h17c-8 10-3 17-8 25-4 6-4 12-1 21H17c-4-11-2-19 4-27 5-7-1-12 3-19Z" fill="#5BA6A0" stroke="#B5E7DF" stroke-width="2"/>
    <path d="M42 19h10v25H40l2-25Z" fill="#765B3D" stroke="#C6A777" stroke-width="2"/>
    <path d="M44 24h6v5h-6zm-1 11h8M15 8c-3 12 8 16 3 29m33-28c5 10-5 15 0 27" stroke="#0C1A12" stroke-width="2" stroke-linecap="round"/>
    <path d="M10 50c10-4 19 4 28 0 7-3 12-2 18 1" stroke="#4F8E55" stroke-width="2.3" stroke-linecap="round"/>
  </g>
</svg>
