<svg xmlns="http://www.w3.org/2000/svg" viewBox="0 0 64 64" fill="none">
  <title>Refugee Kamp stage — emergency tents, wire fence, and fire barrel</title>
  <g data-game-icon-frame="true">
    <path d="M7 8h50v10l-4 8 7 8-7 8 4 14H7l4-14-7-8 7-8-4-8V8Z" fill="#171715" stroke="#77705F" stroke-width="2"/>
    <path d="M12 13h40M9 51h46" stroke="#A65B39" stroke-width="1.5" stroke-linecap="round"/>
  </g>
  <g data-game-icon-symbol="true">
    <path d="m7 43 16-20 16 20H7Zm30 0 10-14 10 14H37Z" fill="#6E6655" stroke="#C5BCA8" stroke-width="2" stroke-linejoin="round"/>
    <path d="M23 23v20m24-14v14M9 50h46M12 46l4 8m4-8 4 8m18-8 4 8m4-8 4 8" stroke="#77705F" stroke-width="2" stroke-linecap="round"/>
    <path d="M28 42h9l2 14H26l2-14Z" fill="#A65B39" stroke="#E39B72" stroke-width="2"/>
    <path d="M30 42c-2-5 4-7 2-12 5 3 8 7 4 12" fill="#E6A748" stroke="#FFD183" stroke-width="1.7"/>
  </g>
</svg>
