<svg xmlns="http://www.w3.org/2000/svg" viewBox="0 0 64 64" fill="none">
  <title>The Pit stage — moonlit stone bridge above spear spikes</title>
  <g data-game-icon-frame="true">
    <path d="m32 3 22 9 7 24-15 23H18L3 36l7-24 22-9Z" fill="#10161A" stroke="#6E7F84" stroke-width="2"/>
    <path d="M13 16 9 32m42-16 4 16M12 47l11 9m29-9-11 9" stroke="#B0A261" stroke-width="1.5" stroke-linecap="round"/>
  </g>
  <g data-game-icon-symbol="true">
    <circle cx="43" cy="17" r="8" fill="#B0A261" stroke="#E3D99B" stroke-width="1.8"/>
    <path d="M6 31h52v9H6v-9Zm6 9 5 8h30l5-8H12Z" fill="#5D5046" stroke="#C0B3A4" stroke-width="2" stroke-linejoin="round"/>
    <path d="M13 31v9m10-9v9m18-9v9m10-9v9M17 48l-5 12m13-12-2 12m24-12 5 12m-13-12 2 12" stroke="#8D4038" stroke-width="2.3" stroke-linecap="round"/>
  </g>
</svg>
