<svg xmlns="http://www.w3.org/2000/svg" viewBox="0 0 64 64" fill="none">
  <title>The Kove stage — Outworld ship, pier hook, and storm waves</title>
  <g data-game-icon-frame="true">
    <path d="M10 6h44l6 18-7 29-21 8-21-8-7-29 6-18Z" fill="#0A1720" stroke="#477F9A" stroke-width="2"/>
    <path d="M15 11 8 26m41-15 7 15M10 48l14 9m30-9-14 9" stroke="#9B7650" stroke-width="1.5" stroke-linecap="round"/>
  </g>
  <g data-game-icon-symbol="true">
    <path d="M14 35h39l-8 14H22l-8-14Z" fill="#74543D" stroke="#C4A17A" stroke-width="2" stroke-linejoin="round"/>
    <path d="M26 35V12l19 12-19 3m0-15h-4m28 2v25c0 6 8 6 8-1" stroke="#C4A17A" stroke-width="2" stroke-linecap="round" stroke-linejoin="round"/>
    <path d="M6 51c6-5 12-5 18 0s12 5 18 0 11-5 16 0M8 57c5-3 10-3 15 0 6 3 12 3 18 0 5-3 10-3 15 0" stroke="#477F9A" stroke-width="2.3" stroke-linecap="round"/>
    <path d="M50 16h8" stroke="#D7E6E9" stroke-width="1.7" stroke-linecap="round"/>
  </g>
</svg>
