<svg xmlns="http://www.w3.org/2000/svg" viewBox="0 0 64 64" fill="none">
  <title>Dead Woods — leap from the standing tree</title>
  <g data-game-icon-frame="true" stroke="#56BFA2" stroke-linecap="round" stroke-linejoin="round">
    <path d="M8 8h17M8 8v17M56 8H39m17 0v17M8 56h17M8 56V39m48 17H39m17 0V39" stroke-width="2.5"/>
    <circle cx="32" cy="32" r="25" fill="#14201B" stroke="#355A4D" stroke-width="1.5" stroke-dasharray="6 4"/>
  </g>
  <g data-game-icon-symbol="true" stroke-linecap="round" stroke-linejoin="round">
    <path d="M15 56V11m0 15 12-9m-12 19-8-7" stroke="#68492F" stroke-width="6"/>
    <circle cx="32" cy="44" r="4" fill="#DCE8E1"/>
    <path d="m34 40 4-7 7-3m-8 5 6 6M20 48c9-3 17-11 22-21m-7 2 7-2 1 7" stroke="#56BFA2" stroke-width="2.6"/>
  </g>
</svg>
