<svg xmlns="http://www.w3.org/2000/svg" viewBox="0 0 64 64" fill="none">
  <title>Takeda — Ronin: telekinetic pulse blades</title>
  <g data-variation-frame="true">
    <path d="M8 14h20l4-8 4 8h20v12l-6 6 6 6v12H36l-4 8-4-8H8l6-18-6-18Z" fill="#101B24" stroke="#4EAFC8" stroke-width="2" stroke-linejoin="round"/>
    <path d="M14 18h13m23 0H37M14 46h13m23 0H37" stroke="#C5F2FF" stroke-width="1.5" stroke-linecap="round"/>
  </g>
  <g data-variation-symbol="true">
    <path d="m18 46 7-20L38 13l5 5-13 13-12 15Z" fill="#79D4E8" stroke="#EAFCFF" stroke-width="2" stroke-linejoin="round"/>
    <path d="m46 46-7-20L26 13l-5 5 13 13 12 15Z" fill="#3A8FB5" stroke="#EAFCFF" stroke-width="2" stroke-linejoin="round"/>
    <path d="M20 42h10m4 0h10M27 34c3 3 7 3 10 0" stroke="#FF7AC7" stroke-width="1.5" stroke-linecap="round"/>
  </g>
</svg>
