<svg xmlns="http://www.w3.org/2000/svg" viewBox="0 0 64 64" fill="none">
  <title>Takeda — Shirai Ryu: tethered kunai</title>
  <g data-variation-frame="true">
    <path d="m32 5 6 11 12-4-2 12 11 5-10 7 5 11-13-1-3 13-6-10-7 10-3-13-12 1 5-11-10-7 11-5-2-12 12 4 6-11Z" fill="#21170C" stroke="#C9902B" stroke-width="2" stroke-linejoin="round"/>
    <circle cx="32" cy="32" r="22" stroke="#FFE0A1" stroke-width="1.5" stroke-dasharray="8 5"/>
  </g>
  <g data-variation-symbol="true">
    <path d="m38 14 10 9-9 3-7 16-6-3 7-16 5-9Z" fill="#D8D7C8" stroke="#FFF9E0" stroke-width="2" stroke-linejoin="round"/>
    <path d="M26 40c-12-3-15 10-7 14 6 3 13-1 12-7" stroke="#E0A62F" stroke-width="2.5" stroke-linecap="round"/>
    <path d="m17 54-6-2 4-5 2 7Z" fill="#C9902B" stroke="#FFE6A6" stroke-width="1.5"/>
  </g>
</svg>
