<svg xmlns="http://www.w3.org/2000/svg" viewBox="0 0 64 64" fill="none">
  <title>Black Dragon faction — coiled dragon</title>
  <g data-game-icon-frame="true">
    <path d="M10 15 25 7l7 5 8-5 14 8-4 15 7 10-11 8-2 10-12-5-12 5-2-10-11-8 7-10-4-15Z" fill="#171416" stroke="#907E6A" stroke-width="2" stroke-linejoin="round"/>
    <path d="M13 17 23 22m28-5-10 5M14 47l11-5m25 5-11-5" stroke="#D5C4AE" stroke-width="1.5"/>
  </g>
  <g data-game-icon-symbol="true">
    <path d="M46 17c-11 0-20 5-23 13l-9-3 5 7-8 6 12 1c4 8 15 10 23 5-10-1-15-5-14-11l10 3-4-6 9-7-11 1c2-4 5-7 10-9Z" fill="#252125" stroke="#ECE1D2" stroke-width="2" stroke-linejoin="round"/>
    <path d="m40 20 7-5-2 8" fill="#A5423B" stroke="#F6C3A7" stroke-width="1.5"/><circle cx="41" cy="23" r="1.7" fill="#F1B63C"/>
  </g>
</svg>
