<svg xmlns="http://www.w3.org/2000/svg" viewBox="0 0 64 64" fill="none">
  <title>Brotherhood of Shadow faction — hooded shadow</title>
  <g data-game-icon-frame="true">
    <path d="M8 32C8 17 18 7 32 7s24 10 24 25-10 25-24 25S8 47 8 32Z" fill="#15111D" stroke="#77639A" stroke-width="2"/>
    <path d="M12 22c4 2 7 1 9-3M52 22c-4 2-7 1-9-3M12 43c4-2 7-1 9 3m31-3c-4-2-7-1-9 3" stroke="#C9BBDF" stroke-width="1.5" stroke-linecap="round"/>
  </g>
  <g data-game-icon-symbol="true">
    <path d="M32 12c9 4 15 13 15 24l6 15-13-4-8 7-8-7-13 4 6-15c0-11 6-20 15-24Z" fill="#342844" stroke="#E5DCF2" stroke-width="2" stroke-linejoin="round"/>
    <path d="M22 31c2-6 5-9 10-9s8 3 10 9l-4 10H26l-4-10Z" fill="#100D16" stroke="#A997C1" stroke-width="1.5"/>
    <path d="m25 32 5 2m9-2-5 2" stroke="#9D66D8" stroke-width="2" stroke-linecap="round"/>
  </g>
</svg>
