<svg xmlns="http://www.w3.org/2000/svg" viewBox="0 0 64 64" fill="none">
  <title>Special Forces faction — military eagle</title>
  <g data-game-icon-frame="true">
    <path d="M12 9h40l6 14-5 9 5 9-6 14H12L6 41l5-9-5-9 6-14Z" fill="#111C18" stroke="#6F9B73" stroke-width="2"/>
    <path d="M15 13h12m22 0H37M15 51h12m22 0H37" stroke="#CDE3C7" stroke-width="1.5" stroke-linecap="round"/>
  </g>
  <g data-game-icon-symbol="true">
    <path d="M11 27c9-6 17-5 21 2 4-7 12-8 21-2l-12 4 7 7-12-2-4 13-4-13-12 2 7-7-12-4Z" fill="#668D67" stroke="#E7F0E2" stroke-width="2" stroke-linejoin="round"/>
    <path d="m32 20 2.5 5 5.5.8-4 4 1 5.7-5-2.7-5 2.7 1-5.7-4-4 5.5-.8 2.5-5Z" fill="#D5B45C" stroke="#FFF0B4" stroke-width="1.5"/>
  </g>
</svg>
