<svg xmlns="http://www.w3.org/2000/svg" viewBox="0 0 64 64" fill="none">
  <title>White Lotus faction — blooming lotus</title>
  <g data-game-icon-frame="true">
    <path d="M32 5c7 5 11 11 11 18 7-2 13 0 17 5-3 7-8 11-14 13 3 6 2 12-1 17-6-1-10-4-13-9-3 5-7 8-13 9-3-5-4-11-1-17-6-2-11-6-14-13 4-5 10-7 17-5 0-7 4-13 11-18Z" fill="#191A16" stroke="#C7C9B4" stroke-width="2"/>
    <circle cx="32" cy="32" r="25" stroke="#F1E7BE" stroke-width="1.5" stroke-dasharray="2 6"/>
  </g>
  <g data-game-icon-symbol="true">
    <path d="M32 14c6 8 8 15 0 24-8-9-6-16 0-24Z" fill="#F0E9D3" stroke="#FFFDF4" stroke-width="2"/>
    <path d="M12 29c11 0 17 4 20 13-11 0-17-4-20-13Zm40 0c-11 0-17 4-20 13 11 0 17-4 20-13Z" fill="#D9D0B7" stroke="#FFFDF4" stroke-width="2"/>
    <path d="M18 46c9 5 19 5 28 0" stroke="#B79A54" stroke-width="2" stroke-linecap="round"/>
  </g>
</svg>
