<svg xmlns="http://www.w3.org/2000/svg" viewBox="0 0 64 64" fill="none">
  <title>Scorpion — Hellfire: burning aura</title>
  <g data-variation-frame="true">
    <path d="M15 53C5 44 7 32 13 25c-1 7 3 8 6 4-4-11 4-20 13-25-2 8 5 10 8 16 3-4 7-5 10-4-3 5 1 9 4 13 7 10 3 22-6 29l-7-5-9 7-8-7-9 0Z" fill="#29100B" stroke="#F07A24" stroke-width="2" stroke-linejoin="round"/>
    <path d="M11 43c6 2 9 6 10 12m32-13c-6 2-9 6-10 12" stroke="#FFD274" stroke-width="1.5" stroke-linecap="round"/>
  </g>
  <g data-variation-symbol="true">
    <path d="M32 12c8 10 14 17 14 27 0 9-6 15-14 15s-14-6-14-15c0-6 3-12 8-18 0 8 4 8 6 3 2-4 1-8 0-12Z" fill="#E94E1B" stroke="#FFE0A1" stroke-width="2" stroke-linejoin="round"/>
    <path d="M34 29c5 7 5 15-2 18-6-3-6-10-2-16 1 4 3 3 4-2Z" fill="#FFD447" stroke="#FFF2C7" stroke-width="1.5"/>
  </g>
</svg>
