<svg xmlns="http://www.w3.org/2000/svg" viewBox="0 0 64 64" fill="none">
  <title>Kano — Cutthroat combat knife power-up</title>
  <g data-variation-frame="true" stroke="#F04C4C" stroke-linecap="round" stroke-linejoin="round">
    <path d="M8 20 20 8h24l12 12v24L44 56H20L8 44z" fill="#1C1517" stroke-width="2.5"/>
    <path d="m10 14 8 8m28 20 8 8M50 14l-8 8M22 42l-8 8" stroke="#FFB347" stroke-width="2.2"/>
    <path d="M25 5h14M25 59h14" stroke-width="1.5"/>
  </g>
  <g data-variation-symbol="true" stroke-linecap="round" stroke-linejoin="round">
    <path d="m18 44 8-7 17-22 6 5-22 17-7 9z" fill="#353035" stroke="#E9EEF2" stroke-width="2.2"/>
    <path d="m42 16 6 6M20 36l8 8" stroke="#F04C4C" stroke-width="2.5"/>
    <path d="m17 23 5-5m-2 12 8-8m15 17 5-5" stroke="#FFB347" stroke-width="2"/>
    <path d="m31 47 2-7 5 5 2-8" stroke="#F04C4C" stroke-width="2"/>
  </g>
</svg>
