<svg xmlns="http://www.w3.org/2000/svg" viewBox="0 0 64 64" fill="none">
  <title>Kuatan Jungle — corner dive from the vine-covered tree</title>
  <g data-game-icon-frame="true" stroke="#65C98B" stroke-linecap="round" stroke-linejoin="round">
    <path d="M9 16 18 7h28l9 9 4 16-4 16-9 9H18l-9-9-4-16z" fill="#152018" stroke-width="2.4"/>
    <path d="M12 12c5 5 6 10 3 15m37-15c-5 5-6 10-3 15M12 52c5-5 6-10 3-15m37 15c-5-5-6-10-3-15" stroke="#8AA65F" stroke-width="1.7"/>
  </g>
  <g data-game-icon-symbol="true" stroke-linecap="round" stroke-linejoin="round">
    <path d="M10 8v48m0-37c8-3 11-8 13-14m-13 27c7 2 11 6 14 12" stroke="#60452E" stroke-width="5"/>
    <path d="M13 13c8-4 14 1 11 8-8 3-13-1-11-8zm1 33c8-2 13 3 9 10-8 1-12-4-9-10z" fill="#7FA05F" stroke="#C3DA92" stroke-width="1.7"/>
    <circle cx="29" cy="24" r="4" fill="#E0E9E2"/>
    <path d="m30 29 8 6 11-4m-11 4 10 10m-14-13-6 11m-3-25 4-8m22 28 6 1-3 6" stroke="#65C98B" stroke-width="2.5"/>
  </g>
</svg>
