<svg xmlns="http://www.w3.org/2000/svg" viewBox="0 0 64 64" fill="none">
  <title>Kuatan Jungle — swing from the living vine</title>
  <g data-game-icon-frame="true" stroke="#55C48A" stroke-linecap="round" stroke-linejoin="round">
    <path d="M32 5c14 0 25 11 25 25 0 9-5 18-13 23M32 59C18 59 7 48 7 34c0-9 5-18 13-23" stroke-width="2.5"/>
    <path d="m43 53 2-7 7 2M21 11l-2 7-7-2" stroke="#95B76F" stroke-width="1.8"/>
    <circle cx="32" cy="32" r="26" fill="#142019" stroke="#3C624A" stroke-width="1.5" stroke-dasharray="2 5"/>
  </g>
  <g data-game-icon-symbol="true" stroke-linecap="round" stroke-linejoin="round">
    <path d="M34 5c-8 11 4 17-3 28" stroke="#6C8D55" stroke-width="4.5"/>
    <path d="M29 10c-8-4-11 3-7 8 8 1 11-3 7-8zm8 9c8-3 11 4 6 9-7 0-10-4-6-9z" fill="#789C5D" stroke="#BED995" stroke-width="1.7"/>
    <circle cx="30" cy="37" r="4" fill="#E1EAE4"/>
    <path d="m31 41 7 6 9-2m-9 2 3 10m-6-12-8 8m1-18-7 2M16 27c-5 10-2 21 8 27m-9-4 9 4-2-8" stroke="#55C48A" stroke-width="2.5"/>
  </g>
</svg>
