<svg xmlns="http://www.w3.org/2000/svg" viewBox="0 0 64 64" fill="none">
  <title>Alien character — elongated xenomorph dome and inner jaw</title>
  <g data-game-icon-frame="true">
    <path d="M32 3 54 12l7 22-13 23H17L3 38l7-25L32 3Z" fill="#071817" stroke="#68B96A" stroke-width="2"/>
    <path d="m10 18 9-8m35 8-9-8M9 43l10 12m36-12L45 55" stroke="#B8D97B" stroke-width="1.5" stroke-linecap="round"/>
  </g>
  <g data-game-icon-symbol="true">
    <path d="M15 30c4-13 13-19 28-16 6 1 10 5 10 10l-12-2 8 6-12 1-3 9-12 3-7-11Z" fill="#68B96A" stroke="#E1F2B5" stroke-width="2" stroke-linejoin="round"/>
    <path d="m22 33 15-2-8 6m7 0 11 2-9 5" stroke="#071817" stroke-width="2" stroke-linecap="round" stroke-linejoin="round"/>
    <circle cx="31" cy="23" r="1.8" fill="#071817"/>
    <path d="M22 42c8 5 18 6 26 0" stroke="#B8D97B" stroke-width="2" stroke-linecap="round"/>
  </g>
</svg>
