<svg xmlns="http://www.w3.org/2000/svg" viewBox="0 0 64 64" fill="none">
  <title>Cassie Cage character — tactical ponytail and star sunglasses</title>
  <g data-game-icon-frame="true">
    <path d="M13 5h38l7 11-4 35-10 8H20l-10-8-4-35 7-11Z" fill="#141522" stroke="#7F77D8" stroke-width="2"/>
    <path d="M18 10h28M11 19l6-7m36 7-6-7M14 49l8 6m28-6-8 6" stroke="#E0B64F" stroke-width="1.5" stroke-linecap="round"/>
  </g>
  <g data-game-icon-symbol="true">
    <path d="M22 18c7-7 20-3 21 7l-2 17-9 7-10-7-3-16 3-8Z" fill="#C98D74" stroke="#FFE1D2" stroke-width="2"/>
    <path d="M21 27c5-3 10-3 11 1 2-4 7-4 12-1l-2 6c-4 4-8 2-10-1-3 3-7 5-10 1l-1-6Z" fill="#7F77D8" stroke="#E8E5FF" stroke-width="1.8" stroke-linejoin="round"/>
    <path d="M39 19c8-2 12 3 10 9-1 4-5 6-8 7M27 39c3 2 7 2 10 0" stroke="#E0B64F" stroke-width="2" stroke-linecap="round"/>
    <path d="m18 51 7-7m21 7-8-7" stroke="#7F77D8" stroke-width="3" stroke-linecap="round"/>
  </g>
</svg>
