<svg xmlns="http://www.w3.org/2000/svg" viewBox="0 0 64 64" fill="none">
  <title>Kotal Kahn character — Osh-Tekk sun crown and war paint</title>
  <g data-game-icon-frame="true">
    <path d="m32 2 8 9 12-4-1 13 10 7-8 10 3 13-13 1-11 10-10-10-13-1 3-13-8-10 10-7-1-13 12 4 7-9Z" fill="#0E1C1A" stroke="#4CA48D" stroke-width="2"/>
    <path d="M15 14 24 20m25-6-9 6M11 44l12-4m30 4-12-4" stroke="#E4AF43" stroke-width="1.5" stroke-linecap="round"/>
  </g>
  <g data-game-icon-symbol="true">
    <path d="m18 18 5-12 5 9 4-12 4 12 5-9 5 12" fill="#E4AF43" stroke="#FFE29A" stroke-width="2" stroke-linejoin="round"/>
    <path d="M19 19h26l2 21-15 14-15-14 2-21Z" fill="#4CA48D" stroke="#C7F0E0" stroke-width="2"/>
    <path d="m20 28 12 5 12-5M32 20v28M23 39l9-6 9 6" stroke="#0E1C1A" stroke-width="2.4" stroke-linecap="round" stroke-linejoin="round"/>
    <path d="M25 25h3m8 0h3" stroke="#FFE29A" stroke-width="2" stroke-linecap="round"/>
  </g>
</svg>
