<svg xmlns="http://www.w3.org/2000/svg" viewBox="0 0 64 64" fill="none">
  <title>Kung Jin character — Shaolin hood and recurved bow</title>
  <g data-game-icon-frame="true">
    <path d="M16 5h32l11 16-6 27-13 11H24L11 48 5 21 16 5Z" fill="#171319" stroke="#956291" stroke-width="2"/>
    <path d="M19 10 9 24m36-14 10 14M13 45l12 10m26-10L39 55" stroke="#D09A4C" stroke-width="1.5" stroke-linecap="round"/>
  </g>
  <g data-game-icon-symbol="true">
    <path d="M18 27c2-12 7-19 14-19s12 7 14 19l-5 18-9 8-9-8-5-18Z" fill="#956291" stroke="#E6C7E3" stroke-width="2"/>
    <path d="M22 24h20l-2 14-8 8-8-8-2-14Z" fill="#503A4E" stroke="#D09A4C" stroke-width="1.8"/>
    <path d="M11 13c15 8 16 30 3 42m39-42C38 21 37 43 50 55M12 34h40" stroke="#D09A4C" stroke-width="2" stroke-linecap="round"/>
    <path d="m46 30 6 4-6 4" stroke="#EFD2A1" stroke-width="2" stroke-linecap="round" stroke-linejoin="round"/>
  </g>
</svg>
