<svg xmlns="http://www.w3.org/2000/svg" viewBox="0 0 64 64" fill="none">
  <title>Mileena character — Tarkatan teeth mask and paired sai</title>
  <g data-game-icon-frame="true">
    <path d="M14 5h36l10 18-7 29-21 8-21-8-7-29L14 5Z" fill="#1B1020" stroke="#A850A8" stroke-width="2"/>
    <path d="M18 10 8 25m38-15 10 15M11 47l12 9m30-9-12 9" stroke="#D4A7D0" stroke-width="1.5" stroke-linecap="round"/>
  </g>
  <g data-game-icon-symbol="true">
    <path d="M21 16c7-6 16-4 22 3l-1 24-10 9-10-9-1-27Z" fill="#A76D6A" stroke="#EEC4BD" stroke-width="2"/>
    <path d="M20 31c8-4 16-4 24 0l-2 14-10 8-10-8-2-14Z" fill="#A850A8" stroke="#EAC8E8" stroke-width="2"/>
    <path d="m24 37 3 6 2-6 3 7 3-7 2 6 3-6M25 26h4m6 0h4" stroke="#FFF0E2" stroke-width="1.7" stroke-linecap="round" stroke-linejoin="round"/>
    <path d="m15 16 4 18-8 12m38-30-4 18 8 12M10 44l5 2 2-5m37 3-5 2-2-5" stroke="#D4A7D0" stroke-width="2" stroke-linecap="round" stroke-linejoin="round"/>
  </g>
</svg>
