<svg xmlns="http://www.w3.org/2000/svg" viewBox="0 0 64 64" fill="none">
  <title>Raiden character — thunder god beneath a conical hat</title>
  <g data-game-icon-frame="true">
    <path d="M8 10h48l4 20-7 26H11L4 30l4-20Z" fill="#101824" stroke="#5F83B2" stroke-width="2"/>
    <path d="m13 15-6 13m44-13 6 13M9 45l12 9m34-9-12 9" stroke="#C6D6ED" stroke-width="1.5" stroke-linecap="round"/>
  </g>
  <g data-game-icon-symbol="true">
    <path d="M5 25 25 7h14l20 18-9 5H14l-9-5Z" fill="#8A7250" stroke="#E4D2A9" stroke-width="2" stroke-linejoin="round"/>
    <path d="M20 29h24l-3 17-9 8-9-8-3-17Z" fill="#6D5744" stroke="#D9BCA5" stroke-width="2"/>
    <path d="M25 36h5m4 0h5" stroke="#B9E7FF" stroke-width="3" stroke-linecap="round"/>
    <path d="m15 38-7 4 6 3-5 7m40-14 7 4-6 3 5 7M27 46h10" stroke="#5F83B2" stroke-width="2" stroke-linecap="round" stroke-linejoin="round"/>
  </g>
</svg>
