<svg xmlns="http://www.w3.org/2000/svg" viewBox="0 0 64 64" fill="none">
  <title>Tanya character — Edenian bob, gold eye paint, and tonfa</title>
  <g data-game-icon-frame="true">
    <path d="M12 5h40l7 18-5 29-22 8-22-8-5-29 7-18Z" fill="#17130C" stroke="#C49A37" stroke-width="2"/>
    <path d="M17 10 8 25m39-15 9 15M10 47l14 9m30-9-14 9" stroke="#8161A8" stroke-width="1.5" stroke-linecap="round"/>
  </g>
  <g data-game-icon-symbol="true">
    <path d="M17 17c8-10 24-9 31 2l-4 28-12 8-12-8-3-30Z" fill="#2B1D19" stroke="#C68B68" stroke-width="2"/>
    <path d="M21 20h23l-2 23-10 9-10-9-1-23Z" fill="#9B6752" stroke="#E8BDA4" stroke-width="2"/>
    <path d="M23 29c3-3 6-3 9 0 3-3 6-3 9 0M27 41c3 2 7 2 10 0" stroke="#C49A37" stroke-width="2.3" stroke-linecap="round"/>
    <path d="m14 36 6 4-9 15-5-3 8-16Zm36 0-6 4 9 15 5-3-8-16Z" fill="#8161A8" stroke="#DBC8F2" stroke-width="2" stroke-linejoin="round"/>
  </g>
</svg>
