<svg xmlns="http://www.w3.org/2000/svg" viewBox="0 0 64 64" fill="none">
  <title>Johnny Cage — Fisticuffs rapid taped fists</title>
  <g data-variation-frame="true" stroke="#FF8A3D" stroke-linecap="round" stroke-linejoin="round">
    <path d="m32 5 18 7 9 17-5 20-22 10-22-10-5-20 9-17z" fill="#171918" stroke-width="2.5"/>
    <path d="M8 29h7m34 0h7M17 53l4-6m26 6-4-6" stroke="#A7E05F" stroke-width="2"/>
    <circle cx="32" cy="8" r="2" fill="#A7E05F" stroke="none"/>
  </g>
  <g data-variation-symbol="true" stroke-linecap="round" stroke-linejoin="round">
    <path d="M14 34c0-4 3-7 7-7h8v12l-7 8-6-3c-3-2-4-6-2-10z" fill="#2A3025" stroke="#A7E05F" stroke-width="2.5"/>
    <path d="M50 34c0-4-3-7-7-7h-8v12l7 8 6-3c3-2 4-6 2-10z" fill="#2A3025" stroke="#A7E05F" stroke-width="2.5"/>
    <path d="M18 27v9m5-9v9m23-9v9m-5-9v9M18 42l7 3m21-3-7 3" stroke="#FF8A3D" stroke-width="2"/>
    <path d="M24 19h16m-13-4h10" stroke="#F8E7C8" stroke-width="2"/>
  </g>
</svg>
