<svg xmlns="http://www.w3.org/2000/svg" viewBox="0 0 64 64" fill="none">
  <title>Johnny Cage — Stunt Double shadow mimic</title>
  <g data-variation-frame="true" stroke-linecap="round">
    <path d="M32 6c14 0 25 11 25 25 0 9-5 17-12 22" stroke="#72F59A" stroke-width="2.5"/>
    <path d="M32 58C18 58 7 47 7 33c0-9 5-17 12-22" stroke="#8D7CFF" stroke-width="2.5"/>
    <path d="m17 7 3 4-5 1m32 40-3-4 5-1" stroke="#E9FFF0" stroke-width="2" stroke-linejoin="round"/>
    <circle cx="32" cy="32" r="27" stroke="#28312E" stroke-width="1.5" stroke-dasharray="1 5"/>
  </g>
  <g data-variation-symbol="true" stroke-linecap="round" stroke-linejoin="round">
    <circle cx="25" cy="25" r="6" fill="#23312B" stroke="#72F59A" stroke-width="2.2"/>
    <path d="M13 47c1-10 5-16 12-16s11 6 12 16" fill="#23312B" stroke="#72F59A" stroke-width="2.2"/>
    <circle cx="39" cy="22" r="5" fill="#292641" stroke="#8D7CFF" stroke-width="2"/>
    <path d="M34 31c2-3 4-4 7-4 6 0 9 6 10 16H39" fill="#292641" stroke="#8D7CFF" stroke-width="2"/>
    <path d="m41 13 5 4-5 4M51 24l4 5-5 3" stroke="#E9FFF0" stroke-width="1.8"/>
  </g>
</svg>
