<svg xmlns="http://www.w3.org/2000/svg" viewBox="0 0 64 64" fill="none">
  <title>Heavy throwable interactable — lifted boulder</title>
  <g data-game-icon-frame="true">
    <path d="M15 8h34l9 17-5 12 3 14-15 7-9-5-9 5-15-7 3-14-5-12 9-17Z" fill="#21190F" stroke="#A47A47" stroke-width="2"/>
    <path d="M18 12h9m19 0h-9M12 49l9-4m31 4-9-4" stroke="#DFC69F" stroke-width="1.5" stroke-linecap="round"/>
  </g>
  <g data-game-icon-symbol="true">
    <path d="m18 16 9-6 14 2 7 8-3 12-12 5-13-5-2-16Z" fill="#786044" stroke="#F0DFC3" stroke-width="2" stroke-linejoin="round"/>
    <path d="m23 20 7-4 10 4m-16 9 9 3 8-4" stroke="#3E3021" stroke-width="1.5"/>
    <path d="M17 49c1-8 5-13 11-14m19 14c-1-8-5-13-11-14M17 49l-7-4m37 4 7-4" stroke="#C28C4D" stroke-width="3" stroke-linecap="round"/>
  </g>
</svg>
