<svg xmlns="http://www.w3.org/2000/svg" viewBox="0 0 64 64" fill="none">
  <title>Reusable interactable — action resets for repeated use</title>
  <g data-game-icon-frame="true">
    <path d="M32 6c15 0 26 11 26 26S47 58 32 58 6 47 6 32 17 6 32 6Z" fill="#0C2020" stroke="#47A69C" stroke-width="2"/>
    <path d="M11 25c3-8 10-13 18-14m24 28c-3 8-10 13-18 14" stroke="#C0EAE4" stroke-width="1.5" stroke-dasharray="8 4"/>
  </g>
  <g data-game-icon-symbol="true">
    <path d="M14 32c0-10 8-18 18-18 6 0 11 3 14 7m4 11c0 10-8 18-18 18-6 0-11-3-14-7" stroke="#5BC5B8" stroke-width="3" stroke-linecap="round"/>
    <path d="m39 20 8 1-1-8m-21 32-8-2 2 8" stroke="#E3FAF6" stroke-width="2" stroke-linecap="round" stroke-linejoin="round"/>
    <path d="m24 27 8-5 8 5v10l-8 5-8-5V27Z" fill="#317E76" stroke="#E7FBF8" stroke-width="1.5"/>
  </g>
</svg>
