<svg xmlns="http://www.w3.org/2000/svg" viewBox="0 0 64 64" fill="none">
  <title>Throwable interactable — launched stage object</title>
  <g data-game-icon-frame="true">
    <path d="M13 10h29l12 9 4 23-14 12H20L7 43l3-22 3-11Z" fill="#221A0D" stroke="#B58C35" stroke-width="2"/>
    <path d="M14 14h11m27 8-7 3M12 47l9-4m31 5-9-5" stroke="#E9D29B" stroke-width="1.5" stroke-linecap="round"/>
  </g>
  <g data-game-icon-symbol="true">
    <path d="m21 27 12-7 12 7v15l-12 7-12-7V27Z" fill="#B98E38" stroke="#FFF0BF" stroke-width="2" stroke-linejoin="round"/>
    <path d="m21 27 12 7 12-7M33 34v15" stroke="#5A441B" stroke-width="1.5"/>
    <path d="M9 30C11 18 20 10 32 9m-6-5 7 5-6 6" stroke="#E46D3E" stroke-width="3" stroke-linecap="round" stroke-linejoin="round"/>
  </g>
</svg>
