<svg xmlns="http://www.w3.org/2000/svg" viewBox="0 0 64 64" fill="none">
  <title>Wall-jump interactable — rebound from vertical surface</title>
  <g data-game-icon-frame="true">
    <path d="M8 7h48v50H8V7Z" fill="#101D25" stroke="#4F94B1" stroke-width="2"/>
    <path d="M14 12v40m0-30h9m-9 10h9m-9 10h9M52 12v40" stroke="#C4E2EE" stroke-width="1.5"/>
  </g>
  <g data-game-icon-symbol="true">
    <circle cx="34" cy="19" r="5" fill="#69A8BF" stroke="#E4F5FA" stroke-width="1.5"/>
    <path d="m31 24 8 8 11 5-4 7-12-5-8 11-7-5 8-13-6-7 10-1Z" fill="#397D98" stroke="#E3F4FA" stroke-width="2" stroke-linejoin="round"/>
    <path d="M22 28 14 32m12 0-4-4m4 4-4 4M47 17c-3-5-8-8-14-9" stroke="#E18A4A" stroke-width="2.5" stroke-linecap="round" stroke-linejoin="round"/>
  </g>
</svg>
